<?xml version="1.0" standalone="no"?><!DOCTYPE svg PUBLIC "-//W3C//DTD SVG 1.1//EN" "http://www.w3.org/Graphics/SVG/1.1/DTD/svg11.dtd"><svg t="1568444900572" class="icon" viewBox="0 0 1321 1024" version="1.1" xmlns="http://www.w3.org/2000/svg" p-id="5995" xmlns:xlink="http://www.w3.org/1999/xlink" width="258.0078125" height="200"><defs><style type="text/css"></style></defs><path d="M1107.835871 154.491871h-105.505032S948.356129 11.197935 912.152774 11.197935h-395.726451c-34.320516 0-107.916387 143.293935-107.916388 143.293936H334.286452c-7.366194-12.882581-32.536774-53.941677-41.719742-53.941677h-120.898065c-10.372129 0-33.06529 53.941677-33.06529 57.542193 0 3.699613 1.222194 7.399226 3.699613 10.471226A181.644387 181.644387 0 0 0 30.620903 336.268387v494.658065a181.941677 181.941677 0 0 0 53.380129 128.495483 180.52129 180.52129 0 0 0 128.825807 53.314065H1107.24129c100.583226 0 182.800516-81.457548 183.395097-181.248V336.862968c0-101.045677-82.184258-182.371097-182.800516-182.371097z m-828.779355 157.233548a71.746065 71.746065 0 0 1-50.869677 20.876387 71.779097 71.779097 0 0 1-50.935742-20.876387A71.448774 71.448774 0 0 1 156.37471 260.954839a71.250581 71.250581 0 0 1 20.942451-50.737549 71.547871 71.547871 0 0 1 50.869678-20.876387c18.993548 0 37.359484 7.300129 50.869677 20.810323 13.444129 13.477161 20.942452 31.777032 20.876387 50.803613 0 18.993548-7.366194 37.326452-20.876387 50.77058z m434.935742 575.554065c-188.283871 0-341.652645-151.816258-341.652645-339.802839 0-187.292903 152.708129-339.802839 341.652645-339.802839S1055.710968 359.556129 1055.710968 547.476645c0 187.325935-152.774194 339.802839-341.71871 339.802839z" fill="#CCEEE5" p-id="5996"></path><path d="M713.992258 780.089806c-129.420387 0-233.736258-104.051613-233.736258-232.613161 0-128.528516 104.910452-232.712258 233.736258-232.712258 129.420387 0 233.703226 104.183742 233.703226 232.712258 0 128.594581-104.877419 232.613161-233.703226 232.613161z" fill="#CCEEE5" p-id="5997"></path></svg>