<?xml version="1.0" standalone="no"?><!DOCTYPE svg PUBLIC "-//W3C//DTD SVG 1.1//EN" "http://www.w3.org/Graphics/SVG/1.1/DTD/svg11.dtd"><svg t="1595064565262" class="icon" viewBox="0 0 1024 1024" version="1.1" xmlns="http://www.w3.org/2000/svg" p-id="2496" xmlns:xlink="http://www.w3.org/1999/xlink" width="200" height="200"><defs><style type="text/css"></style></defs><path d="M514.3 512m-469.5 0a469.5 469.5 0 1 0 939 0 469.5 469.5 0 1 0-939 0Z" fill="#FFC0CB" p-id="2497"></path><path d="M332.5 346.4m-40.9 0a40.9 40.9 0 1 0 81.8 0 40.9 40.9 0 1 0-81.8 0Z" fill="#FFFFFF" p-id="2498"></path><path d="M699.5 678.4m-40.9 0a40.9 40.9 0 1 0 81.8 0 40.9 40.9 0 1 0-81.8 0Z" fill="#FFFFFF" p-id="2499"></path><path d="M838 371c20 10.5 27.7 35.3 17.2 55.3L805 522c-10.5 20-35.3 27.7-55.3 17.2s-27.7-35.3-17.2-55.3l50.2-95.7c10.5-20 35.3-27.7 55.3-17.2z" fill="#FFFFFF" p-id="2500"></path><path d="M636.6 432.9c10.5-20 35.3-27.7 55.3-17.2l95.7 50.2c20 10.5 27.7 35.3 17.2 55.3s-35.3 27.7-55.3 17.2l-95.7-50.2c-20-10.5-27.7-35.3-17.2-55.3zM165.3 548.8c-16-16-16.1-41.9-0.1-57.9l76.3-76.6c16-16 41.9-16.1 57.9-0.1s16.1 41.9 0.1 57.9l-76.3 76.6c-15.9 16-41.9 16.1-57.9 0.1z" fill="#FFFFFF" p-id="2501"></path><path d="M376.5 548.5c-16 16-41.9 16.1-57.9 0.1L242 472.4c-16-16-16.1-41.9-0.1-57.9s41.9-16.1 57.9-0.1l76.6 76.3c16 15.9 16 41.8 0.1 57.8zM364.1 371.8c37.6-39.9 91-64.9 150.2-64.9 104.5 0 190.9 77.7 204.5 178.5l80.4-16.2C778 330.9 658.5 225 514.3 225c-83 0-157.7 35.1-210.3 91.1l60.1 55.7z" fill="#FFFFFF" p-id="2502"></path><path d="M669.3 649.5c-37.8 43-93.2 70.2-155 70.2-114 0-206.4-92.4-206.4-206.4 0-14 1.4-27.7 4.1-40.9l-81.6-9.5c-2.9 16.4-4.4 33.2-4.4 50.4 0 159.2 129.1 288.3 288.3 288.3 84.4 0 160.3-36.3 213-94.1l-58-58z" fill="#FFFFFF" p-id="2503"></path></svg>