<?xml version="1.0" standalone="no"?><!DOCTYPE svg PUBLIC "-//W3C//DTD SVG 1.1//EN" "http://www.w3.org/Graphics/SVG/1.1/DTD/svg11.dtd"><svg t="1595591146251" class="icon" viewBox="0 0 1024 1024" version="1.1" xmlns="http://www.w3.org/2000/svg" p-id="7973" xmlns:xlink="http://www.w3.org/1999/xlink" width="200" height="200"><defs><style type="text/css"></style></defs><path d="M323.7 647.1c-26 0-45.9 23-42.2 48.8l27.8 193h520.5c42.4 0 78.4-31.2 84.5-73.2l24.3-168.6H323.7z" fill="#F4C708" p-id="7974"></path><path d="M512 725.3c-5.7 0-11.2-2.3-15.3-6.4L326 543.9c-8.2-8.4-8.1-21.9 0.4-30.2 8.4-8.2 22-8.1 30.2 0.4L512 673.4 667.4 514c8.2-8.4 21.7-8.6 30.2-0.4 8.4 8.2 8.6 21.7 0.4 30.2l-170.7 175c-4.1 4.2-9.6 6.5-15.3 6.5z" fill="#111111" p-id="7975"></path><path d="M811.4 910.2H212.6c-52.7 0-98-39.3-105.6-91.5L64.2 522.1c-1.7-11.7 6.4-22.5 18.1-24.2 11.7-1.7 22.5 6.4 24.2 18.1l42.8 296.6c4.5 31.3 31.7 54.9 63.3 54.9h598.8c31.6 0 58.8-23.6 63.3-54.9L917.5 516c1.7-11.6 12.5-19.7 24.2-18.1 11.7 1.7 19.7 12.5 18.1 24.2L917 818.8c-7.5 52.1-52.9 91.4-105.6 91.4z" fill="#111111" p-id="7976"></path><path d="M512 725.3c-11.8 0-21.3-9.5-21.3-21.3V135.1c0-11.8 9.5-21.3 21.3-21.3s21.3 9.5 21.3 21.3V704c0 11.8-9.5 21.3-21.3 21.3z" fill="#111111" p-id="7977"></path></svg>