<?xml version="1.0" standalone="no"?><!DOCTYPE svg PUBLIC "-//W3C//DTD SVG 1.1//EN" "http://www.w3.org/Graphics/SVG/1.1/DTD/svg11.dtd"><svg t="1595063152849" class="icon" viewBox="0 0 1024 1024" version="1.1" xmlns="http://www.w3.org/2000/svg" p-id="2760" xmlns:xlink="http://www.w3.org/1999/xlink" width="200" height="200"><defs><style type="text/css"></style></defs><path d="M486.4 76.8c51.2-102.4 204.8-102.4 204.8 0 0 68.2752-25.6 153.6-76.8 256h283.648a102.4 102.4 0 0 1 100.2752 123.2896l-76.8512 368.8448A153.6 153.6 0 0 1 771.0976 947.2H204.8V332.8h51.2c119.4752-102.4 196.2752-187.7248 230.4-256z" fill="#BFBFBF" p-id="2761"></path><path d="M0 281.6m51.2 0l153.6 0q51.2 0 51.2 51.2l0 614.4q0 51.2-51.2 51.2l-153.6 0q-51.2 0-51.2-51.2l0-614.4q0-51.2 51.2-51.2Z" fill="#cdcdcd" p-id="2762"></path><path d="M128 460.8m-51.2 0a51.2 51.2 0 1 0 102.4 0 51.2 51.2 0 1 0-102.4 0Z" fill="#707070" p-id="2763"></path><path d="M915.6608 198.8608L870.4 281.6l-45.2608-82.7392L742.4 153.6l82.7392-45.2608L870.4 25.6l45.2608 82.7392L998.4 153.6z" fill="#8a8a8a" p-id="2764"></path></svg>