<?xml version="1.0" standalone="no"?><!DOCTYPE svg PUBLIC "-//W3C//DTD SVG 1.1//EN" "http://www.w3.org/Graphics/SVG/1.1/DTD/svg11.dtd"><svg t="1568444980196" class="icon" viewBox="0 0 1024 1024" version="1.1" xmlns="http://www.w3.org/2000/svg" p-id="8873" xmlns:xlink="http://www.w3.org/1999/xlink" width="200" height="200"><defs><style type="text/css"></style></defs><path d="M703.873 232.437c-130.172-130.232-341.269-130.232-471.502 0s-130.233 341.33 0 471.502c60.328 60.346 143.68 97.672 235.751 97.672 92.07 0 175.422-37.327 235.75-97.672 60.347-60.329 97.673-143.681 97.673-235.751s-37.327-175.422-97.672-235.75zM159.787 776.525C80.843 697.601 32.014 588.557 32.014 468.109 32.014 227.253 227.267 32 468.123 32s436.109 195.253 436.109 436.109c0 120.448-48.83 229.492-127.773 308.415-78.917 78.897-187.928 127.694-308.336 127.694-120.409 0-229.419-48.797-308.336-127.694z m814.631 197.959c-10.772 10.789-25.662 17.463-42.112 17.463s-31.34-6.674-42.111-17.462l-84.163-84.223c-10.77-10.77-17.431-25.648-17.431-42.082 0-32.868 26.645-59.512 59.512-59.512 16.433 0 31.312 6.661 42.082 17.43l84.222 84.163c10.818 10.759 17.512 25.653 17.512 42.111s-6.695 31.353-17.51 42.109z" fill="#CCEEE5" p-id="8874"></path></svg>