<?xml version="1.0" standalone="no"?><!DOCTYPE svg PUBLIC "-//W3C//DTD SVG 1.1//EN" "http://www.w3.org/Graphics/SVG/1.1/DTD/svg11.dtd"><svg t="1570026144341" class="icon" viewBox="0 0 1096 1024" version="1.1" xmlns="http://www.w3.org/2000/svg" p-id="7404" xmlns:xlink="http://www.w3.org/1999/xlink" width="214.0625" height="200"><defs><style type="text/css"></style></defs><path d="M197.57462 274.18040938a171.75172781 171.75172781 0 0 1-85.09041375-24.87258282C43.88824156 210.55896125 12.99387594 134.63213 44.15005812 81.22153156a101.06123063 101.06123063 0 0 1 78.54499782-47.91244781 166.77721125 166.77721125 0 0 1 102.89394656 22.77804844 166.51539469 166.51539469 0 0 1 70.95231469 78.54499781 101.06123063 101.06123063 0 0 1-2.61816657 91.37401406 101.06123063 101.06123063 0 0 1-78.54499781 47.91244875 142.69007906 142.69007906 0 0 1-17.80353281 0.26181656zM139.71313813 58.18166563a117.81749625 117.81749625 0 0 0-14.39991563 0 75.66501469 75.66501469 0 0 0-58.64693156 36.13069875c-23.82531562 41.10521531 2.61816656 100.79941313 58.90874812 133.26468a140.59554562 140.59554562 0 0 0 86.3994975 19.37443218 75.66501469 75.66501469 0 0 0 58.64693157-35.0834325 75.66501469 75.66501469 0 0 0 1.04726625-67.28688093 140.33372906 140.33372906 0 0 0-59.95601438-65.97779813A145.57006219 145.57006219 0 0 0 139.71313813 58.18166563z" fill="#707070" p-id="7405"></path><path d="M1043.50424375 647.26914781l-528.60783375-523.63331719a61.52691469 61.52691469 0 0 0-40.05794906-18.32716593L190.76738656 110.54499781a16.75626656 16.75626656 0 0 0-16.49444906 16.49444907l-5.49814969 292.97284125a50.26879875 50.26879875 0 0 0 15.97081594 32.465265l528.60783375 523.63331718a52.36333125 52.36333125 0 0 0 75.14138062 0l255.00942563-255.53305875a52.36333125 52.36333125 0 0 0 0-73.30866375zM291.0431675 280.72582531a60.21783188 60.21783188 0 1 1 60.21783094-60.21783094 60.21783188 60.21783188 0 0 1-59.17056469 61.26509813z" fill="#CCEEE5" p-id="7406"></path></svg>