<?xml version="1.0" standalone="no"?><!DOCTYPE svg PUBLIC "-//W3C//DTD SVG 1.1//EN" "http://www.w3.org/Graphics/SVG/1.1/DTD/svg11.dtd"><svg t="1570097002435" class="icon" viewBox="0 0 1024 1024" version="1.1" xmlns="http://www.w3.org/2000/svg" p-id="2164" xmlns:xlink="http://www.w3.org/1999/xlink" width="200" height="200"><defs><style type="text/css"></style></defs><path d="M507.4 794.2c-113.8 0-207.1-93.3-207.1-207.1S393.6 380 507.4 380s207.1 93.3 207.1 207.1-93.3 207.1-207.1 207.1z m434.7-507.5c-25-25-54.6-36.4-88.7-36.4H744.1l-25-66c-6.8-15.9-18.2-29.6-34.1-41s-34.1-18.2-50.1-18.2H384.6c-18.2 0-34.1 6.8-50.1 18.2-15.9 11.4-27.3 25-34.1 41l-27.3 66H161.6c-34.1 0-63.7 11.4-88.7 36.4s-36.4 54.6-36.4 88.7v439.2c0 34.1 11.4 63.7 36.4 88.7s54.6 36.4 88.7 36.4h691.8c34.1 0 63.7-11.4 88.7-36.4s36.4-54.6 36.4-88.7V375.5c0-34.2-11.4-63.7-36.4-88.8z" fill="#D8EEE5" p-id="2165"></path><path d="M507.4 450.6c-77.4 0-138.8 61.4-138.8 138.8S430 728.2 507.4 728.2s138.8-61.4 138.8-138.8-61.4-138.8-138.8-138.8z" fill="#407cbf" p-id="2166"></path></svg>