<?xml version="1.0" standalone="no"?><!DOCTYPE svg PUBLIC "-//W3C//DTD SVG 1.1//EN" "http://www.w3.org/Graphics/SVG/1.1/DTD/svg11.dtd"><svg t="1570120219077" class="icon" viewBox="0 0 1024 1024" version="1.1" xmlns="http://www.w3.org/2000/svg" p-id="1877" xmlns:xlink="http://www.w3.org/1999/xlink" width="32" height="32"><defs><style type="text/css"></style></defs><path d="M995.104 74.048l-440.064 440.256 427.872 430.848c16.352 16.448 19.744 39.712 7.616 51.968s-35.232 8.8-51.584-7.648l-428.032-430.976-436.48 436.672c-16.544 16.544-39.936 19.968-52.224 7.68s-8.864-35.68 7.68-52.224l436.64-436.8-437.216-440.256c-16.352-16.448-19.744-39.712-7.616-51.968s35.264-8.832 51.584 7.648l437.376 440.384 439.904-440.096c16.544-16.544 39.936-19.968 52.224-7.68s8.864 35.68-7.68 52.224z" p-id="1878" fill="#d81e06"></path></svg>