<?xml version="1.0" standalone="no"?><!DOCTYPE svg PUBLIC "-//W3C//DTD SVG 1.1//EN" "http://www.w3.org/Graphics/SVG/1.1/DTD/svg11.dtd"><svg t="1570097149400" class="icon" viewBox="0 0 1024 1024" version="1.1" xmlns="http://www.w3.org/2000/svg" p-id="2677" xmlns:xlink="http://www.w3.org/1999/xlink" width="200" height="200"><defs><style type="text/css"></style></defs><path d="M328.95228839 351.73616197m-183.95388839 0a183.95388839 183.95388839 0 1 0 367.9077768 0 183.95388839 183.95388839 0 1 0-367.9077768 0Z" fill="#D8EEE5" p-id="2678"></path><path d="M570.51312987 215.42128197m-47.63900839 0a47.63900839 47.63900839 0 1 0 95.27801679 0 47.63900839 47.63900839 0 1 0-95.27801679 0Z" fill="#D8EEE5" p-id="2679"></path><path d="M713.21979259 563.82198518m-70.63324444 0a70.63324445 70.63324445 0 1 0 141.26648888 0 70.63324445 70.63324445 0 1 0-141.26648888 0Z" fill="#D8EEE5" p-id="2680"></path><path d="M540.42690974 545.43475913c-5.30242877 0-10.75214722-2.06205563-14.87625847-6.18616688-8.24822251-8.24822251-8.24822251-21.50429441 0-29.60522726L686.68556973 348.50844655c8.24822251-8.24822251 21.50429441-8.24822251 29.60522723 0 8.24822251 8.24822251 8.24822251 21.50429441 0 29.60522724L555.15587853 539.24859225c-4.12411126 4.12411126-9.42654002 6.1861669-14.72896879 6.18616688z" fill="#D46CFF" p-id="2681"></path><path d="M324.12835915 882.73813806c-60.95549906 0-121.91099815-23.23816681-168.2085766-69.53574528-92.77391209-92.77391209-92.77391209-243.64324115 0-336.41715324l247.75460914-247.75460913c10.01028723-10.01028723 26.09824886-10.01028723 35.92978097 0s10.01028723 26.09824886 0 35.92978097L191.84956352 512.71502051c-72.93209274 72.93209274-72.93209274 191.62549855 0 264.55759128s191.62549855 72.93209274 264.55759129 0L839.6581519 394.02161472c46.29757847-46.29757847 46.29757847-121.55348788 0-167.67231126-44.86753743-44.86753743-122.98352893-44.68878233-167.67231124 0l-370.02311751 370.02311754c-19.30555395 19.12679883-19.30555395 50.40894644 0 69.71450041 19.12679883 19.12679883 50.40894644 19.12679883 69.7145004 0l67.92694911-67.74819399c10.01028723-10.01028723 26.09824886-10.01028723 35.92978097 0 10.01028723 10.01028723 10.01028723 26.09824886 0 35.92978097l-67.9269491 67.748194c-38.96861817 38.96861817-102.6054442 38.96861817-141.57406238 0-38.96861817-38.96861817-38.96861817-102.6054442 0-141.57406236l370.02311755-370.02311752c65.96064269-65.96064269 173.5712305-66.13939781 239.53187317 0 66.13939781 66.13939781 65.96064269 173.5712305 0 239.53187316L492.33693579 813.20239278c-46.29757847 46.47633361-107.25307755 69.53574526-168.20857664 69.53574528z" fill="#3F08C4" p-id="2682"></path></svg>