<?xml version="1.0" standalone="no"?><!DOCTYPE svg PUBLIC "-//W3C//DTD SVG 1.1//EN" "http://www.w3.org/Graphics/SVG/1.1/DTD/svg11.dtd"><svg t="1570096898597" class="icon" viewBox="0 0 1024 1024" version="1.1" xmlns="http://www.w3.org/2000/svg" p-id="2133" xmlns:xlink="http://www.w3.org/1999/xlink" width="200" height="200"><defs><style type="text/css"></style></defs><path d="M14.4 631.2l540-540 264 264-540 540-264-264z" fill="#62C19A" p-id="2134"></path><path d="M324 585.6c51.2 51.2 134.4 51.2 185.6 0 51.2-51.2 51.2-134.4 0-185.6s-134.4-51.2-185.6 0-51.2 134.4 0 185.6z" fill="#D8EEE5" p-id="2135"></path><path d="M392.8 478.4c-5.6-5.6-4-10.4 1.6-16s11.2-7.2 20.8-8l-1.6-25.6c-11.2 0-22.4 1.6-32.8 8.8L367.2 424l-16 16 14.4 14.4c-10.4 16-8.8 33.6 5.6 47.2 24 24 61.6-10.4 72 1.6 5.6 5.6 4.8 10.4-1.6 17.6-6.4 6.4-13.6 9.6-27.2 11.2l6.4 26.4c13.6-0.8 26.4-7.2 35.2-13.6l13.6 13.6 16-16-14.4-14.4c11.2-18.4 8-35.2-6.4-48.8-25.6-25.6-61.6 8.8-72-0.8z" fill="#62C19A" p-id="2136"></path><path d="M534.4 111.2L35.2 610.4l-20.8 20.8 20.8 20.8 221.6 221.6 20.8 20.8 540-540-262.4-263.2-20.8 20z m228 217.6c-2.4 1.6-4 3.2-6.4 4.8-11.2 11.2-11.2 30.4 0 41.6 1.6 1.6 4 4 6.4 4.8L304 838.4c-1.6-2.4-3.2-4-4.8-6.4-11.2-11.2-30.4-11.2-41.6 0-1.6 1.6-4 4-4.8 6.4L71.2 656.8c2.4-1.6 4-3.2 6.4-4.8 11.2-11.2 11.2-30.4 0-41.6-1.6-1.6-4-4-6.4-4.8l458.4-458.4c1.6 2.4 3.2 4 4.8 6.4 11.2 11.2 30.4 11.2 41.6 0 1.6-1.6 4-4 4.8-6.4l181.6 181.6z" fill="#D8EEE5" p-id="2137"></path><path d="M155.2 608l693.6-320.8 156.8 338.4L312 946.4 155.2 608z" fill="#62C19A" p-id="2138"></path><path d="M460.8 672c30.4 65.6 108.8 94.4 174.4 64 65.6-30.4 94.4-108.8 64-174.4-30.4-65.6-108.8-94.4-174.4-64s-94.4 108.8-64 174.4z" fill="#D8EEE5" p-id="2139"></path><path d="M821.6 299.2l-640 296-26.4 12.8 12.8 27.2L300 920l12.8 27.2 692-321.6L848 287.2l-26.4 12z m139.2 282.4l-7.2 2.4c-15.2 6.4-20.8 24.8-14.4 39.2 1.6 2.4 2.4 4.8 4 6.4l-588 272-2.4-7.2c-6.4-15.2-24.8-20.8-39.2-14.4-2.4 1.6-4.8 2.4-6.4 4l-108-232 7.2-2.4c15.2-6.4 20.8-24.8 14.4-39.2-1.6-2.4-2.4-4.8-4-6.4l588-272 2.4 7.2c6.4 15.2 24.8 20.8 39.2 14.4 2.4-1.6 4.8-2.4 6.4-4l108 232z" fill="#D8EEE5" p-id="2140"></path></svg>