<?xml version="1.0" standalone="no"?><!DOCTYPE svg PUBLIC "-//W3C//DTD SVG 1.1//EN" "http://www.w3.org/Graphics/SVG/1.1/DTD/svg11.dtd"><svg t="1570097044878" class="icon" viewBox="0 0 1024 1024" version="1.1" xmlns="http://www.w3.org/2000/svg" p-id="2420" xmlns:xlink="http://www.w3.org/1999/xlink" width="200" height="200"><defs><style type="text/css"></style></defs><path d="M742.6 959.9L512 862.4l-230.6 97.5V605.4h461.2z" fill="#407abf" p-id="2421"></path><path d="M166.2 409.9c0 123.5 65.9 237.7 172.9 299.5 107 61.8 238.8 61.8 345.8 0s172.9-175.9 172.9-299.5c0-191-154.8-345.8-345.8-345.8S166.2 218.9 166.2 409.9z" fill="#D8EEE5" p-id="2422"></path><path d="M281.4 409.9c0 127.4 103.2 230.6 230.6 230.6 127.4 0 230.6-103.2 230.6-230.6 0-127.4-103.2-230.6-230.6-230.6-127.4 0-230.6 103.2-230.6 230.6z" fill="#79d2ae" p-id="2423"></path><path d="M523.4 269.5l38 76.8c1.8 3.8 5.5 6.3 9.6 6.9l84.8 12.4c10.4 1.5 14.6 14.3 7 21.6L601.4 447c-3 2.9-4.4 7.2-3.6 11.2l14.4 84.4c1.8 10.3-9.1 18.2-18.4 13.3l-81.8-43-81.7 42.9c-9.3 4.9-20.1-3-18.4-13.3l14.4-84.4c0.7-4.1-0.6-8.3-3.6-11.2l-61.4-59.8c-7.5-7.3-3.4-20.1 7-21.6l84.8-12.4c4.1-0.6 7.6-3.2 9.6-6.9l38-76.8c4.6-9.4 18.1-9.4 22.7 0.1z" fill="#D8EEE5" p-id="2424"></path></svg>