<?xml version="1.0" standalone="no"?><!DOCTYPE svg PUBLIC "-//W3C//DTD SVG 1.1//EN" "http://www.w3.org/Graphics/SVG/1.1/DTD/svg11.dtd"><svg t="1570026186378" class="icon" viewBox="0 0 1024 1024" version="1.1" xmlns="http://www.w3.org/2000/svg" p-id="7788" xmlns:xlink="http://www.w3.org/1999/xlink" width="200" height="200"><defs><style type="text/css"></style></defs><path d="M650.971429 209.67619l43.885714 90.209524 265.752381 39.009524c26.819048 4.87619 51.2 21.942857 58.514286 46.32381 9.752381 24.380952 2.438095 53.638095-17.066667 70.704762l-195.047619 190.171428L853.333333 911.847619c4.87619 26.819048-7.314286 53.638095-29.257143 68.266667-12.190476 7.314286-26.819048 12.190476-41.447619 12.190476-12.190476 0-24.380952-2.438095-36.571428-9.752381l-231.619048-121.904762-117.028571 60.952381c-80.457143-121.904762-102.4-285.257143-63.390476-412.038095 46.32381-156.038095 156.038095-263.314286 316.952381-299.885715z" fill="#CCEEE5" p-id="7789"></path><path d="M499.809524 112.152381c9.752381 0 29.257143 4.87619 34.133333 12.190476l102.4 216.990476c4.87619 12.190476 17.066667 19.504762 31.695238 21.942857l248.685715 34.133334c9.752381 2.438095 17.066667 7.314286 19.504761 14.628571 2.438095 7.314286 0 14.628571-4.87619 21.942857l-185.295238 168.228572c-9.752381 9.752381-14.628571 21.942857-12.190476 34.133333L780.190476 882.590476c2.438095 7.314286-2.438095 17.066667-9.752381 21.942857-4.87619 2.438095-9.752381 4.87619-14.628571 4.876191-4.87619 0-7.314286 0-12.190476-2.438095l-209.676191-121.904762c-9.752381-2.438095-14.628571-4.87619-21.942857-4.876191-7.314286 0-12.190476 2.438095-19.504762 4.876191l-212.114286 121.904762c-4.87619 2.438095-7.314286 2.438095-12.190476 2.438095s-9.752381-2.438095-14.628571-4.876191c-7.314286-4.87619-9.752381-12.190476-9.752381-21.942857l48.761905-246.247619c2.438095-12.190476-2.438095-26.819048-12.190477-34.133333L97.52381 436.419048c-4.87619-4.87619-7.314286-14.628571-4.876191-21.942858 2.438095-7.314286 9.752381-14.628571 19.504762-14.628571L358.4 365.714286c14.628571-2.438095 24.380952-9.752381 31.695238-21.942857l102.4-216.990477c4.87619-7.314286 12.190476-12.190476 21.942857-12.190476l-14.628571-2.438095zM512 24.380952c-29.257143 0-53.638095 14.628571-65.828571 41.447619l-117.028572 234.057143-265.752381 39.009524c-26.819048 4.87619-51.2 21.942857-58.514286 46.32381-9.752381 24.380952-2.438095 53.638095 17.066667 70.704762l195.047619 190.171428L170.666667 911.847619c-4.87619 26.819048 7.314286 53.638095 29.257143 68.266667 12.190476 7.314286 26.819048 12.190476 41.447619 12.190476 12.190476 0 24.380952-2.438095 36.571428-9.752381l231.619048-121.904762 231.619047 121.904762c12.190476 4.87619 24.380952 9.752381 36.571429 9.752381 14.628571 0 29.257143-4.87619 41.447619-12.190476 21.942857-14.628571 34.133333-41.447619 29.257143-68.266667l-46.32381-263.314286 195.047619-190.171428c19.504762-19.504762 26.819048-46.32381 17.066667-70.704762-9.752381-24.380952-31.695238-43.885714-58.514286-46.32381l-265.752381-39.009523-117.028571-234.057143C565.638095 39.009524 541.257143 24.380952 512 24.380952z" fill="#707070" p-id="7790"></path></svg>