<?xml version="1.0" standalone="no"?><!DOCTYPE svg PUBLIC "-//W3C//DTD SVG 1.1//EN" "http://www.w3.org/Graphics/SVG/1.1/DTD/svg11.dtd"><svg t="1570096834613" class="icon" viewBox="0 0 1024 1024" version="1.1" xmlns="http://www.w3.org/2000/svg" p-id="2108" xmlns:xlink="http://www.w3.org/1999/xlink" width="200" height="200"><defs><style type="text/css"></style></defs><path d="M512 3.280213C231.488853 3.280213 3.280213 231.492267 3.280213 512c0 280.511147 228.20864 508.719787 508.719787 508.719787S1020.719787 792.511147 1020.719787 512C1020.719787 231.492267 792.511147 3.280213 512 3.280213z" fill="#D8EEE5" p-id="2109"></path><path d="M645.413547 674.327893c-20.66432 45.605547-43.025067 79.745707-67.08224 102.423894-24.067413 22.678187-49.954133 34.013867-77.6704 34.013866-20.660907 0-36.788907-6.301013-48.377174-18.8928-11.59168-12.598613-17.384107-30.1056-17.384106-52.538026 0-14.363307 2.512213-32.31744 7.55712-53.855574 5.041493-21.54496 12.342613-45.032107 21.92384-70.485333 6.045013-16.62976 14.359893-38.550187 24.94464-65.764693 19.401387-50.8928 29.098667-81.63328 29.098666-92.218027 0-8.062293-1.57696-14.11072-4.724053-18.141867-3.15392-4.027733-8.000853-6.045013-14.55104-6.045013-11.59168 0-23.432533 5.669547-35.525973 17.005227-12.09344 11.339093-26.08128 29.986133-41.95328 55.937706h-43.083094c21.920427-43.083093 45.85472-76.404053 71.806294-99.966293 25.951573-23.555413 51.27168-35.33824 75.967146-35.33824 19.653973 0 35.0208 6.365867 46.11072 19.08736 11.086507 12.724907 16.62976 30.552747 16.62976 53.480107 0 12.847787-2.710187 29.5424-8.127146 50.077013-5.420373 20.538027-17.70496 57.511253-36.850347 110.926507-14.114133 38.802773-23.558827 66.461013-28.34432 82.961066-4.788907 16.503467-7.181653 28.532053-7.181653 36.092587 0 8.567467 1.949013 15.117653 5.860693 19.653973 3.904853 4.532907 9.383253 6.79936 16.438613 6.79936 10.830507 0 22.111573-6.171307 33.826134-18.520746 11.717973-12.3392 24.500907-31.238827 38.35904-56.68864h42.33216zM516.911787 264.256853c0-14.363307 4.846933-26.456747 14.55104-36.283733 9.69728-9.826987 21.602987-14.738773 35.71712-14.738773 14.359893 0 26.514773 4.911787 36.471466 14.738773 9.949867 9.826987 14.92992 21.920427 14.92992 36.283733 0 13.861547-5.044907 25.828693-15.117653 35.904854-10.082987 10.079573-22.176427 15.117653-36.283733 15.117653-13.861547 0-25.698987-4.973227-35.525974-14.92992-9.826987-9.946453-14.742187-21.978453-14.742186-36.092587z" fill="#ffffff" p-id="2110"></path></svg>