<?xml version="1.0" standalone="no"?><!DOCTYPE svg PUBLIC "-//W3C//DTD SVG 1.1//EN" "http://www.w3.org/Graphics/SVG/1.1/DTD/svg11.dtd"><svg t="1581004614621" class="icon" viewBox="0 0 1024 1024" version="1.1" xmlns="http://www.w3.org/2000/svg" p-id="1851" xmlns:xlink="http://www.w3.org/1999/xlink" width="200" height="200"><defs><style type="text/css"></style></defs><path d="M812.03319993 213.24108162v0.02791566h-0.02664711c-7.25043058-16.02416217-22.78670536-27.15802718-40.87471494-27.15802718H372.8460403c-18.08610642 0-33.64712454 11.13386499-40.87090866 27.15802718a47.94686674 47.94686674 0 0 0-4.39923747 19.74391023V553.25062336c0 4.56102068 0.84127325 8.8803181 2.03593174 13.03466064 5.51205277 19.52756426 22.70295841 33.89328866 43.20820186 33.89328866h205.3347589a13.43562937 13.43562937 0 0 1 7.65964775 4.4277877 26.82177146 26.82177146 0 0 0 5.29570742 6.95160747l50.18455204 47.7146598c8.52883601 9.96902468 20.42213109 15.66760463 32.94225658 15.66760462 2.1748754 0 4.26346613-0.43269131 6.38187627-0.7575263a43.99745073 43.99745073 0 0 0 28.16552515-16.89081335 27.31663808 27.31663808 0 0 0 5.64592097-16.40229136l0.21697993-38.92062638a11.26329171 11.26329171 0 0 1 4.53373963-1.79040219h51.87344317c20.58264513 0 37.80210101-14.39490923 43.3401663-33.86346988a47.68991709 47.68991709 0 0 0 2.01436073-13.14632261V233.09284756c-0.00126919-7.1140253-1.63369443-13.79472466-4.37576269-19.85176594zM504.09736045 430.52623545c-22.49739857 0.01522638-40.74846054-18.21109226-40.76305296-40.70722165-0.01459242-22.49803316 18.21172686-40.74846054 40.70722165-40.76305297h0.11166261c22.49676399 0.01459242 40.72371721 18.26501979 40.70785625 40.76305297-0.01522638 22.4961294-18.26311665 40.72244867-40.76368755 40.70722165z m135.78696355 0c-22.49676399 0.01522638-40.74909513-18.21109226-40.76305296-40.70722165-0.01522638-22.49803316 18.21109226-40.74846054 40.70658771-40.76305297h0.10785506c22.49993631 0.01459242 40.72625494 18.26501979 40.71166316 40.76305297-0.01522638 22.4961294-18.26628897 40.72244867-40.76305297 40.70722165z" fill="#29275A" p-id="1852"></path><path d="M191.78956457 396.03783766v320.07529867c0 25.93481844 20.36820292 46.98441456 45.35198993 46.98441455h51.84362438c1.16737742 0.05202439 2.95968339 0.81272301 4.58893633 1.81641472l0.21824848 38.91681946c0 2.36393967 0.54245016 4.616852 1.16737806 6.89894848a26.77355398 26.77355398 0 0 0 4.45316499 9.50334288c8.63542252 11.21824591 21.18346431 17.65531889 34.51821659 17.65531889h0.05392815c12.54613801 0 24.3874087-5.70619313 32.94098806-15.67077696l12.08489644-11.48725022 38.07427765-36.22804415c1.68444964-1.57342226 4.0464862-4.94485993 5.27033014-6.89894848a13.47496448 13.47496448 0 0 1 7.68439045-4.48298442h205.3360281c12.98200164 0 24.68559721-5.72839874 32.96826909-14.8510747l-0.29818916-0.29818851h0.46251009l-24.57774214-23.19338416-16.62117445-15.97023465h-0.29945769L559.2534195 644.82315628H381.89004476c-97.63020813-0.83873553-100.15656562-80.60045176-100.15656564-80.60045113V378.92877583c0.10975883-0.92502021 0.5703658-1.76565887 0.57036581-2.74333742 0-0.97894773-0.46060634-1.79357452-0.57036581-2.74270348v-0.21888306h-0.02664647c-1.38562654-13.65387786-12.83481021-24.07335857-26.55974635-24.16852563h-18.08800957c-24.95713927 0.00063458-45.26951152 21.07370547-45.26951216 46.98251142z" fill="#328DFF" p-id="1853"></path></svg>