<?xml version="1.0" standalone="no"?><!DOCTYPE svg PUBLIC "-//W3C//DTD SVG 1.1//EN" "http://www.w3.org/Graphics/SVG/1.1/DTD/svg11.dtd"><svg t="1570096801320" class="icon" viewBox="0 0 1024 1024" version="1.1" xmlns="http://www.w3.org/2000/svg" p-id="2097" xmlns:xlink="http://www.w3.org/1999/xlink" width="200" height="200"><defs><style type="text/css"></style></defs><path d="M926.29809073 99.46148926v0.03854707h-0.03679542c-10.01169053-22.12681729-31.46481299-37.5009126-56.441475-37.5009126H319.85053174c-24.97403408 0-46.46132315 15.37409531-56.43621914 37.5009126a66.20699092 66.20699092 0 0 0-6.07464668 27.26319726V568.96054472c0 6.29804355 1.16166445 12.26230576 2.81129765 17.99879151 7.61126748 26.96445791 31.34917178 46.80123662 59.66364903 46.80123662h283.53461748a18.55246552 18.55246552 0 0 1 10.57675429 6.11407002 37.03659697 37.03659697 0 0 0 7.31252901 9.59906338l69.29687813 65.8863501c11.77696494 13.76563623 28.1997123 21.63446807 45.48801269 21.63446806 3.00315674 0 5.88716807-0.59747783 8.81235527-1.04602324a60.75347607 60.75347607 0 0 0 38.89210694-23.32352461 37.71992901 37.71992901 0 0 0 7.79611816-22.64895351l0.29961475-53.74318975a15.55281299 15.55281299 0 0 1 6.26037275-2.47226044h71.62896796c28.42135664 0 52.19868428-19.87707832 59.84587091-46.76006163a65.85218437 65.85218437 0 0 0 2.78151152-18.15297891V126.87361807c-0.00175254-9.82333653-2.25587197-19.04831895-6.04223174-27.41212882zM501.0877127 399.4976999c-31.06532636 0.02102519-56.26713779-25.14661963-56.2872876-56.21019345-0.0201498-31.06620263 25.1474959-56.26713779 56.21019346-56.2872876h0.15418828c31.0644501 0.0201498 56.23297119 25.22108496 56.21106972 56.2872876-0.02102519 31.06357383-25.21845703 56.23121953-56.28816386 56.21019345z m187.50018251 0c-31.0644501 0.02102519-56.26801406-25.14661963-56.28728759-56.21019345-0.02102519-31.06620263 25.14661963-56.26713779 56.20931806-56.2872876h0.14893067c31.06883057 0.0201498 56.23647539 25.22108496 56.21632646 56.2872876-0.02102519 31.06357383-25.2228375 56.23121953-56.2872876 56.21019345z" fill="#29275A" p-id="2098"></path><path d="M69.84035879 351.87471231v441.97303886c0 35.81185605 28.12524609 64.87799766 62.6238791 64.87799766h71.58779297c1.6119624 0.0718374 4.08685166 1.12224112 6.33659062 2.50817959l0.30136641 53.73793301c0 3.26422441 0.74903731 6.3751377 1.61196328 9.5263497a36.97001631 36.97001631 0 0 0 6.14911201 13.12260381c11.92414395 15.49061191 29.25099229 24.37918506 47.6641626 24.37918506h0.07446621c17.32421953 0 33.6751295-7.87934443 45.48626104-21.63884854l16.68731835-15.86206406 52.5745169-50.0251623c2.32595683-2.1726457 5.58755333-6.82806445 7.27748701-9.52634971a18.60678105 18.60678105 0 0 1 10.61092002-6.19028789h283.53637002c17.92607783 0 34.08688037-7.91000683 45.52393184-20.50697021l-0.41175176-0.41175088h0.63865283l-33.9379497-32.02637168-22.9511962-22.05235195h-0.41350341L577.24945068 695.40763643H332.33886231c-134.81177695-1.15816026-138.30027451-111.29639414-138.30027452-111.29639327V328.24982129c0.15155947-1.27730567 0.78758438-2.43809385 0.78758438-3.78811231 0-1.35177099-0.63602403-2.47664092-0.78758438-3.78723691v-0.30224267h-0.03679453c-1.91332969-18.85383193-17.72282988-33.24147627-36.67478203-33.37288682h-24.97666201c-34.46183672 0.00087627-62.50998955 29.09943281-62.50999043 64.87536973z" fill="#D8EEE5" p-id="2099"></path></svg>