<?xml version="1.0" standalone="no"?><!DOCTYPE svg PUBLIC "-//W3C//DTD SVG 1.1//EN" "http://www.w3.org/Graphics/SVG/1.1/DTD/svg11.dtd"><svg t="1580999132395" class="icon" viewBox="0 0 1024 1024" version="1.1" xmlns="http://www.w3.org/2000/svg" p-id="1851" xmlns:xlink="http://www.w3.org/1999/xlink" width="200" height="200"><defs><style type="text/css"></style></defs><path d="M853.37110748 172.07874176v0.03176181h-0.0303185c-8.24937879-18.23193563-25.92620699-30.89979981-46.50634232-30.89979981H353.67371696c-20.57796997 0-38.28295059 12.66786417-46.50201163 30.89979981a54.55287949 54.55287949 0 0 0-5.00535463 22.46418231V558.93404258c0 5.18942798 0.95718201 10.1038286 2.31643789 14.83054721 6.27149115 22.21802867 25.83092157 38.56303066 49.16133189 38.56303066h233.62532569a15.28676052 15.28676052 0 0 1 8.71497699 5.03783845 30.51721553 30.51721553 0 0 0 6.02533823 7.9093845l57.09886809 54.2886796c9.70392008 11.34253474 23.23584693 17.82625238 37.48096749 17.82625236 2.4745249 0 4.85087702-0.49230656 7.26115699-0.86189659a50.05932172 50.05932172 0 0 0 32.04610862-19.21799208 31.08026378 31.08026378 0 0 0 6.42380341-18.66216262l0.24687495-44.28302378a12.81512301 12.81512301 0 0 1 5.1583882-2.03707983h59.02045089c23.41847623 0 43.01039048-16.37820784 49.31147811-38.52910351a54.26052789 54.26052789 0 0 0 2.29189487-14.95759372V194.66563989c-0.00144405-8.09417989-1.85878122-15.69533117-4.97864554-22.58689814zM503.00855233 419.30096123c-25.59704015 0.01732423-46.36269289-20.72017609-46.37929581-46.3157722-0.01660293-25.59776218 20.72089811-46.36269289 46.3157722-46.37929581h0.12704723c25.59631814 0.01660293 46.33454047 20.78153363 46.31649422 46.37929581-0.01732423 25.59559612-20.77936828 46.33309715-46.38001784 46.3157722z m154.49538964 0c-25.59631814 0.01732423-46.3634149-20.72017609-46.3792958-46.3157722-0.01732423-25.59776218 20.72017609-46.36269289 46.3150509-46.37929581h0.12271509c25.59992753 0.01660293 46.33742784 20.78153363 46.32082563 46.37929581-0.01732423 25.59559612-20.78297768 46.33309715-46.37929582 46.3157722z" fill="#29275A" p-id="1852"></path><path d="M147.67168236 380.06082863v364.17456204c0 29.5080601 23.17448866 53.45782278 51.60048631 53.45782278h58.98652375c1.32821609 0.05919219 3.367462 0.92469818 5.22118978 2.0666763l0.24831827 44.27869236c0 2.68963803 0.61718773 5.2529516 1.32821681 7.84947027a30.46235475 30.46235475 0 0 0 5.06671217 10.81269235c9.82519185 12.7638709 24.10207494 20.08782949 39.27405976 20.08782949h0.06135826c14.27471702 0 27.74745168-6.49237974 37.47952419-17.82986178l13.74992661-13.06993803 43.32006702-41.21946357c1.91652937-1.79020489 4.60400208-5.62615174 5.99646451-7.84947028a15.33151514 15.33151514 0 0 1 8.74312869-5.10064004h233.62676974c14.77063298 0 28.08672394-6.51764479 37.51056395-16.89722277l-0.339273-0.33927227h0.52623371l-27.96400884-26.38891709-18.91120293-18.17057809h-0.34071631L565.76389063 663.12323558H363.96378426c-111.08148125-0.95429465-113.95591466-91.70540289-113.95591468-91.70540216V360.59451827c0.12488115-1.05246744 0.64894954-2.00892742 0.64894953-3.12130835 0-1.11382497-0.52406766-2.04068923-0.64894953-3.12058706v-0.24904029h-0.03031776c-1.57653508-15.5350788-14.60316183-27.39013242-30.21908919-27.49841138h-20.58013533c-28.39567845 0.00072202-51.50664422 23.97719378-51.50664494 53.45565744z" fill="#328DFF" p-id="1853"></path></svg>