<?xml version="1.0" standalone="no"?><!DOCTYPE svg PUBLIC "-//W3C//DTD SVG 1.1//EN" "http://www.w3.org/Graphics/SVG/1.1/DTD/svg11.dtd"><svg t="1570026202220" class="icon" viewBox="0 0 1024 1024" version="1.1" xmlns="http://www.w3.org/2000/svg" p-id="7915" xmlns:xlink="http://www.w3.org/1999/xlink" width="200" height="200"><defs><style type="text/css"></style></defs><path d="M550.990769 10.581333l380.717949 216.930462A78.769231 78.769231 0 0 1 971.487179 295.962256v432.075488a78.769231 78.769231 0 0 1-39.778461 68.450461l-380.717949 216.930462a78.769231 78.769231 0 0 1-77.981538 0l-380.717949-216.930462A78.769231 78.769231 0 0 1 52.512821 728.037744V295.962256a78.769231 78.769231 0 0 1 39.778461-68.450461l380.717949-216.930462a78.769231 78.769231 0 0 1 77.981538 0z" fill="#868B92" p-id="7916"></path><path d="M512 512m-275.692308 0a275.692308 275.692308 0 1 0 551.384616 0 275.692308 275.692308 0 1 0-551.384616 0Z" fill="#C9CCD0" p-id="7917"></path><path d="M512 512m-118.153846 0a118.153846 118.153846 0 1 0 236.307692 0 118.153846 118.153846 0 1 0-236.307692 0Z" fill="#FFFFFF" p-id="7918"></path></svg>