<?xml version="1.0" standalone="no"?><!DOCTYPE svg PUBLIC "-//W3C//DTD SVG 1.1//EN" "http://www.w3.org/Graphics/SVG/1.1/DTD/svg11.dtd"><svg t="1570937799347" class="icon" viewBox="0 0 1024 1024" version="1.1" xmlns="http://www.w3.org/2000/svg" p-id="2321" xmlns:xlink="http://www.w3.org/1999/xlink" width="200" height="200"><defs><style type="text/css"></style></defs><path d="M512 512m-512 0a512 512 0 1 0 1024 0 512 512 0 1 0-1024 0Z" fill="#DFEEE5" p-id="2322"></path><path d="M690.414933 282.9312a310.016 310.016 0 0 1 55.176534 50.005333 326.656 326.656 0 0 1 41.386666 60.347734 298.154667 298.154667 0 0 1 26.2144 68.642133c5.973333 24.149333 8.977067 48.64 8.977067 73.454933 0 42.769067-8.174933 82.8928-24.490667 120.3712-16.3328 37.4784-38.4 70.144-66.218666 97.962667s-60.4672 49.885867-97.962667 66.218667c-37.461333 16.315733-77.585067 24.4736-120.354133 24.4736-42.325333 0-82.210133-8.157867-119.688534-24.490667-37.4784-16.315733-70.2464-38.4-98.304-66.218667-28.040533-27.818667-50.107733-60.4672-66.218666-97.9456C212.872533 618.274133 204.8 578.1504 204.8 535.381333c0-24.3712 2.8672-48.2816 8.618667-71.7312a318.7712 318.7712 0 0 1 24.490666-66.901333 295.202133 295.202133 0 0 1 39.3216-59.323733 335.104 335.104 0 0 1 52.4288-49.664c10.103467-7.3728 21.026133-10.120533 32.768-8.277334a43.264 43.264 0 0 1 28.6208 17.237334 41.130667 41.130667 0 0 1 8.277334 32.426666 43.4688 43.4688 0 0 1-17.237334 28.962134c-28.9792 21.162667-51.165867 47.138133-66.577066 77.943466-15.4112 30.8224-23.108267 63.931733-23.108267 99.328 0 30.3616 5.751467 58.9824 17.237333 85.879467a221.525333 221.525333 0 0 0 47.2576 70.365867 226.3552 226.3552 0 0 0 70.3488 47.598933 212.565333 212.565333 0 0 0 85.879467 17.578667c30.3616 0 58.9824-5.853867 85.879467-17.578667a226.304 226.304 0 0 0 70.365866-47.598933 226.389333 226.389333 0 0 0 47.598934-70.365867 212.548267 212.548267 0 0 0 17.578666-85.8624c0-35.874133-8.277333-69.802667-24.832-101.751467a215.074133 215.074133 0 0 0-69.666133-78.984533 41.557333 41.557333 0 0 1-18.261333-28.279467c-2.082133-11.946667 0.341333-22.9888 7.236266-33.109333 6.894933-9.659733 16.315733-15.530667 28.279467-17.578667 11.946667-2.082133 22.9888 0.341333 33.109333 7.236267zM513.143467 537.463467c-11.946667 0-22.186667-4.266667-30.702934-12.765867a41.847467 41.847467 0 0 1-12.765866-30.702933V231.8848c0-11.946667 4.266667-22.306133 12.765866-31.061333 8.516267-8.721067 18.7392-13.090133 30.702934-13.090134 12.407467 0 22.869333 4.369067 31.3856 13.1072a43.008 43.008 0 0 1 12.7488 31.044267v262.109867c0 11.946667-4.2496 22.186667-12.7488 30.702933-8.516267 8.4992-18.978133 12.765867-31.402667 12.765867z" fill="#4551B1" p-id="2323"></path></svg>