<?xml version="1.0" standalone="no"?>
<!DOCTYPE svg PUBLIC "-//W3C//DTD SVG 1.1//EN" "http://www.w3.org/Graphics/SVG/1.1/DTD/svg11.dtd" >
<!--
2013-9-30: Created.
-->
<svg>
<metadata>
Created by iconfont
</metadata>
<defs>

<font id="pixicon" horiz-adv-x="1024" >
  <font-face
    font-family="pixicon"
    font-weight="500"
    font-stretch="normal"
    units-per-em="1024"
    ascent="896"
    descent="-128"
  />
    <missing-glyph />
    
    <glyph glyph-name="back" unicode="&#58911;" d="M750.381737 674.997584L463.634967 384.474814l286.74677-290.511513c8.848529-8.875135 15.504112-19.020192 19.917632-30.41266 4.437056-11.366885 6.655584-22.933315 6.655584-34.649148 0-11.691273-2.218528-23.108301-6.655584-34.17638-4.41352-11.067057-11.06808-21.039175-19.917632-29.888727-17.749246-18.371416-38.937824-27.545356-63.641459-27.545356-24.653493 0-45.86663 9.17394-63.591317 27.545356L276.6012 314.22689c-8.875135 8.848529-15.829524 19.443841-20.889773 31.80845-5.060249 12.339026-7.927553 24.828478-8.525164 37.491892-0.648776 12.650111 0.921999 24.839735 4.735861 36.544311 3.789303 11.715833 10.121522 21.363564 18.995633 28.966729L623.148961 804.1245c17.699104 17.723663 38.937824 26.585495 63.591317 26.585495 24.704658 0 45.893236-8.861832 63.641459-26.585495 8.848529-8.861832 15.480576-18.98233 19.917632-30.374798s6.655584-22.946618 6.655584-34.662451c0-11.704576-2.218528-23.108301-6.655584-34.175357C765.885849 693.830511 759.230266 683.859415 750.381737 674.997584L750.381737 674.997584 750.381737 674.997584zM750.381737 674.997584"  horiz-adv-x="1024" />

    
    <glyph glyph-name="download" unicode="&#58947;" d="M708.923077 384c0-65.220923-52.932923-118.153846-118.153846-118.153846l-157.538462 0c-65.220923 0-118.153846 52.932923-118.153846 118.153846L315.076923 777.846154c0 65.260308 52.932923 118.153846 118.153846 118.153846l157.538462 0c65.220923 0 118.153846-52.893538 118.153846-118.153846L708.923077 384zM599.000615 146.90461500000004c-86.843077-86.882462-85.779692-86.646154-172.465231 0l-258.678154 258.678154C120.32 453.277538 131.229538 462.769231 186.761846 462.769231l652.248615 0c50.136615 0 66.323692-9.491692 18.747077-57.147077L599.000615 146.90461500000004zM945.230769 147.69230800000003l0-157.538462c0-21.700923-17.644308-39.384615-39.384615-39.384615L118.153846-49.23076900000001c-21.740308 0-39.384615 17.683692-39.384615 39.384615l0 157.538462L0 147.69230800000003l0-157.538462c0-65.220923 52.932923-118.153846 118.153846-118.153846l787.692308 0c65.220923 0 118.153846 52.932923 118.153846 118.153846l0 157.538462L945.230769 147.69230800000003z"  horiz-adv-x="1024" />

    
    <glyph glyph-name="mark" unicode="&#58933;" d="M726.16 496a32 32 0 1 1 22.64-9.36A32 32 0 0 1 726.16 496zM612.96-16.56a95.36 95.36 0 0 0-67.92 28.08L139.52 417.04a95.36 95.36 0 0 0-28.08 67.84V688.56a96 96 0 0 0 96 96h203.6a95.44 95.44 0 0 0 67.84-28.08l190.64-190.56A32 32 0 1 0 624 520.64L433.68 711.2a32 32 0 0 1-22.64 9.36H207.44a32 32 0 0 1-32-32v-203.6a32 32 0 0 1 9.36-22.64l405.52-405.52a32.8 32.8 0 0 1 45.28 0l203.6 203.6a32 32 0 0 1 0 45.28l-56.56 56.64a32 32 0 0 0 45.28 45.2l56.48-56.64a96 96 0 0 0 0-136L680.8 11.52a95.36 95.36 0 0 0-67.84-28.08zM378.24 424.72a96 96 0 1 0 67.92 28.08 96 96 0 0 0-67.92-28.08z m0 128a32 32 0 1 1 22.64-9.36 32 32 0 0 1-22.64 9.28z"  horiz-adv-x="1024" />

    
    <glyph glyph-name="sousuo" unicode="&#58890;" d="M492.5-21.700000000000045c-247 0-447.9 200.9-447.9 447.9s200.9 448 447.9 448 447.9-200.9 447.9-447.9-200.9-448-447.9-448z m0 810.6c-200 0-362.6-162.7-362.6-362.6s162.7-362.6 362.6-362.6 362.6 162.7 362.6 362.6-162.6 362.6-362.6 362.6zM951.1-75c-10.9 0-21.8 4.2-30.2 12.5l-96 96c-16.7 16.7-16.7 43.7 0 60.3 16.6 16.7 43.7 16.7 60.3 0l96-96c16.7-16.7 16.7-43.7 0-60.3-8.2-8.4-19.2-12.5-30.1-12.5z"  horiz-adv-x="1024" />

    
    <glyph glyph-name="sousuo1" unicode="&#58976;" d="M847.10656 108.39936c-23.48544 0.01536-43.92064-11.97568-52.96128-31.12192-10.5344-22.30784-10.59072-45.30688 6.17344-63.4688 30.32064-32.84736 62.19392-64.36992 94.93632-94.81088 14.88896-13.8432 34.81216-17.14048 54.2784-8.53248 44.85632 19.83616 54.01856 64.53888 20.18944 99.96928-25.98016 27.21408-52.93184 53.50912-79.81056 79.84768-11.94368 11.70816-26.0992 19.29088-42.80576 18.11712zM33.8432 428.06144c0.6144 240.3328 194.3296 434.61504 434.44224 434.208 237.6832-0.40704 433.56032-189.06752 433.58464-433.62816 0.02688-242.6688-191.5008-434.1632-434.18752-434.16448-244.1664 0-432.44416 195.65312-433.83936 433.58464z m434.23744-331.17312c182.21056-1.10592 328.0832 147.96544 331.62752 324.4864 3.7568 187.32416-150.05824 342.4768-339.0272 338.72128-175.424-3.48672-329.16864-149.74976-324.33408-341.36064 4.41088-174.78656 149.34144-322.88896 331.73376-321.84704zM847.10656 108.39936c16.70784 1.17248 30.86208-6.41152 42.80832-18.11968 26.87872-26.33856 53.8304-52.6336 79.81056-79.84768 33.82912-35.4304 24.66688-80.13312-20.18944-99.96928-19.46624-8.608-39.38944-5.31072-54.2784 8.53248-32.7424 30.44096-64.61696 61.96352-94.93632 94.81088-16.76672 18.16192-16.7104 41.16096-6.17344 63.4688 9.03552 19.1488 29.47328 31.13984 52.95872 31.12448z"  horiz-adv-x="1024" />

    
    <glyph glyph-name="gerenxinxi" unicode="&#58885;" d="M0 896h1024v-1024H0zM512 736.64h370.133333a343.04 343.04 0 0 0 42.666667-1.92c66.56-8.533333 99.413333-42.666667 99.626667-108.8Q1024 384 1024 139.946667A114.133333 114.133333 0 0 0 902.613333 21.333333Q512 19.84 119.253333 21.333333C46.933333 21.333333 1.066667 66.133333 0 136.106667V619.946667c0 78.293333 40.533333 116.266667 121.386667 116.693333h389.333333m-112-550.826667c0 32 1.493333 61.44 0 90.666667a77.44 77.44 0 0 1-68.693333 72.32 1034.026667 1034.026667 0 0 1-146.133334 0 68.48 68.48 0 0 1-64-56.533333 806.826667 806.826667 0 0 1-6.186666-106.666667h285.013333M343.466667 491.946667a83.626667 83.626667 0 0 1-85.333334 82.56 84.053333 84.053333 0 1 1 0-168.106667 85.333333 85.333333 0 0 1 85.333334 85.333333M682.666667 332.586667h135.253333c26.026667 0 38.4 9.813333 39.253333 29.013333s-10.453333 33.28-37.12 33.493333q-136.32 1.28-272.64 0c-26.453333 0-37.76-12.8-36.906666-33.92s12.586667-28.16 39.466666-28.373333h132.906667m0-103.466667h135.253333c26.026667 0 38.4 9.813333 39.253334 29.013334s-10.453333 33.28-37.12 33.493333q-136.32 1.28-272.64 0c-26.453333 0-37.76-12.8-36.906667-33.92s12.586667-28.16 39.466667-28.373333h132.906666m49.493334 215.893333h85.333333c24.106667 0 39.253333 11.946667 38.826667 29.653333 0 23.04-18.773333 28.586667-36.906667 29.013334q-89.386667 1.493333-178.773333 0c-23.04 0-37.76-14.293333-35.413334-30.506667 2.986667-21.333333 17.92-28.16 38.186667-28.16z"  horiz-adv-x="1024" />

    
    <glyph glyph-name="xiangji" unicode="&#58891;" d="M640 320m-192 0a192 192 0 1 1 384 0 192 192 0 1 1-384 0ZM959.6 640H896l-20 64c-14 48-28.8 64-64 64H451c-35.2 0-49-29-64-64l-23-64H256v5.9c0 14.4-11.8 26.1-26.1 26.1h-75.7c-14.4 0-26.1-11.8-26.1-26.1v-5.9H64.4C29 640 0 611 0 575.6v-511.2C0 29 29 0 64.4 0h895.2c35.4 0 64.4 29 64.4 64.4V575.6c0 35.4-29 64.4-64.4 64.4zM192 544c-17.7 0-32 14.3-32 32s14.3 32 32 32 32-14.3 32-32-14.3-32-32-32z m448-480c-141.4 0-256 114.6-256 256s114.6 256 256 256 256-114.6 256-256-114.6-256-256-256z"  horiz-adv-x="1024" />

    
    <glyph glyph-name="gerenxinxi1" unicode="&#59942;" d="M246.8 573c30.3 0 54.8 30.2 54.8 67.4V716c0 37.2-24.6 67.4-54.8 67.4-30.3 0-54.8-30.2-54.8-67.4v-75.7c-0.1-37.2 24.5-67.3 54.8-67.3zM959.7 645.3c-2.5 61.7-59.5 57.6-59.5 57.6h-32.7v-107.1s-0.7-47-46.3-47.1h-8.6c-14.8 0-41.2 0.1-70.6 0h-12.6c-46.4 1.5-44.2 45.9-44.2 45.9V702.9H339v-108.3s2.2-44.4-44.2-45.9h-12.6c-29.4 0.1-55.8 0-70.6 0H203c-45.6 0.1-46.3 47.1-46.3 47.1V702.9H124s-57 4.1-59.5-57.6c-0.4-2.5-0.4-4-0.4-4s0.1-570 0.1-595.2c0-61.2 62-61.8 62-61.8h771.9s62 0.6 62 61.8c0 25.3 0.1 595.2 0.1 595.2s-0.1 1.5-0.5 4zM513.3 109.8c0-46.8-89.5-57.4-173.6-57.4-83.9 0-174.6 10.6-174.6 57.4v12.9c0 34.3 61.9 69.1 114.7 88.2 3.8 1.4 22 11.3 11.8 38-26.1 26.7-45.9 69.9-45.9 112.5 0 65.2 43.1 99.4 93.5 99.4s93.7-34.2 93.7-99.4c0-42.4-19.9-85.5-45.8-112.2h0.1c-10-30.3 6-37.5 8.5-38.3 55.4-18.3 117.6-52.8 117.6-88.2v-12.9z m307.5 21.5H625c-23.2 0-42.1 18.8-42.1 42.1 0 23.2 18.8 42 42.1 42h195.8c23.2 0 42-18.8 42-42 0.1-23.3-18.7-42.1-42-42.1z m0 166.5H625c-23.2 0-42.1 18.8-42.1 42.1 0 23.2 18.8 42 42.1 42h195.8c23.2 0 42-18.8 42-42 0.1-23.3-18.7-42.1-42-42.1zM777.7 573c30.3 0 54.8 30.2 54.8 67.4V716c0 37.2-26.6 67.4-56.9 67.4-30.3 0-52.8-30.2-52.8-67.4v-75.7c0-37.2 24.6-67.3 54.9-67.3z"  horiz-adv-x="1024" />

    
    <glyph glyph-name="luntan" unicode="&#59056;" d="M926.29809073 796.53851074v-0.03854707h-0.03679542c-10.01169053 22.12681729-31.46481299 37.5009126-56.441475 37.5009126H319.85053174c-24.97403408 0-46.46132315-15.37409531-56.43621914-37.5009126a66.20699092 66.20699092 0 0 1-6.07464668-27.26319726V327.03945527999997c0-6.29804355 1.16166445-12.26230576 2.81129765-17.99879151 7.61126748-26.96445791 31.34917178-46.80123662 59.66364903-46.80123662h283.53461748a18.55246552 18.55246552 0 0 0 10.57675429-6.11407002 37.03659697 37.03659697 0 0 1 7.31252901-9.59906338l69.29687813-65.8863501c11.77696494-13.76563623 28.1997123-21.63446807 45.48801269-21.63446806 3.00315674 0 5.88716807 0.59747783 8.81235527 1.04602324a60.75347607 60.75347607 0 0 1 38.89210694 23.32352461 37.71992901 37.71992901 0 0 1 7.79611816 22.64895351l0.29961475 53.74318975a15.55281299 15.55281299 0 0 0 6.26037275 2.47226044h71.62896796c28.42135664 0 52.19868428 19.87707832 59.84587091 46.76006163a65.85218437 65.85218437 0 0 1 2.78151152 18.15297891V769.12638193c-0.00175254 9.82333653-2.25587197 19.04831895-6.04223174 27.41212882zM501.0877127 496.5023001c-31.06532636-0.02102519-56.26713779 25.14661963-56.2872876 56.21019345-0.0201498 31.06620263 25.1474959 56.26713779 56.21019346 56.2872876h0.15418828c31.0644501-0.0201498 56.23297119-25.22108496 56.21106972-56.2872876-0.02102519-31.06357383-25.21845703-56.23121953-56.28816386-56.21019345z m187.50018251 0c-31.0644501-0.02102519-56.26801406 25.14661963-56.28728759 56.21019345-0.02102519 31.06620263 25.14661963 56.26713779 56.20931806 56.2872876h0.14893067c31.06883057-0.0201498 56.23647539-25.22108496 56.21632646-56.2872876-0.02102519-31.06357383-25.2228375-56.23121953-56.2872876-56.21019345zM69.84035879 544.12528769v-441.97303886c0-35.81185605 28.12524609-64.87799766 62.6238791-64.87799766h71.58779297c1.6119624-0.0718374 4.08685166-1.12224112 6.33659062-2.50817959l0.30136641-53.73793301c0-3.26422441 0.74903731-6.3751377 1.61196328-9.5263497a36.97001631 36.97001631 0 0 1 6.14911201-13.12260381c11.92414395-15.49061191 29.25099229-24.37918506 47.6641626-24.37918506h0.07446621c17.32421953 0 33.6751295 7.87934443 45.48626104 21.63884854l16.68731835 15.86206406 52.5745169 50.0251623c2.32595683 2.1726457 5.58755333 6.82806445 7.27748701 9.52634971a18.60678105 18.60678105 0 0 0 10.61092002 6.19028789h283.53637002c17.92607783 0 34.08688037 7.91000683 45.52393184 20.50697021l-0.41175176 0.41175088h0.63865283l-33.9379497 32.02637168-22.9511962 22.05235195h-0.41350341L577.24945068 200.59236356999997H332.33886231c-134.81177695 1.15816026-138.30027451 111.29639414-138.30027452 111.29639327V567.75017871c0.15155947 1.27730567 0.78758438 2.43809385 0.78758438 3.78811231 0 1.35177099-0.63602403 2.47664092-0.78758438 3.78723691v0.30224267h-0.03679453c-1.91332969 18.85383193-17.72282988 33.24147627-36.67478203 33.37288682h-24.97666201c-34.46183672-0.00087627-62.50998955-29.09943281-62.50999043-64.87536973z"  horiz-adv-x="1024" />

    
    <glyph glyph-name="yonghuxuzhi-" unicode="&#58922;" d="M512 892.719787C231.488853 892.719787 3.280213 664.507733 3.280213 384c0-280.511147 228.20864-508.719787 508.719787-508.719787S1020.719787 103.48885299999995 1020.719787 384C1020.719787 664.507733 792.511147 892.719787 512 892.719787zM645.413547 221.67210699999998c-20.66432-45.605547-43.025067-79.745707-67.08224-102.423894-24.067413-22.678187-49.954133-34.013867-77.6704-34.013866-20.660907 0-36.788907 6.301013-48.377174 18.8928-11.59168 12.598613-17.384107 30.1056-17.384106 52.538026 0 14.363307 2.512213 32.31744 7.55712 53.855574 5.041493 21.54496 12.342613 45.032107 21.92384 70.485333 6.045013 16.62976 14.359893 38.550187 24.94464 65.764693 19.401387 50.8928 29.098667 81.63328 29.098666 92.218027 0 8.062293-1.57696 14.11072-4.724053 18.141867-3.15392 4.027733-8.000853 6.045013-14.55104 6.045013-11.59168 0-23.432533-5.669547-35.525973-17.005227-12.09344-11.339093-26.08128-29.986133-41.95328-55.937706h-43.083094c21.920427 43.083093 45.85472 76.404053 71.806294 99.966293 25.951573 23.555413 51.27168 35.33824 75.967146 35.33824 19.653973 0 35.0208-6.365867 46.11072-19.08736 11.086507-12.724907 16.62976-30.552747 16.62976-53.480107 0-12.847787-2.710187-29.5424-8.127146-50.077013-5.420373-20.538027-17.70496-57.511253-36.850347-110.926507-14.114133-38.802773-23.558827-66.461013-28.34432-82.961066-4.788907-16.503467-7.181653-28.532053-7.181653-36.092587 0-8.567467 1.949013-15.117653 5.860693-19.653973 3.904853-4.532907 9.383253-6.79936 16.438613-6.79936 10.830507 0 22.111573 6.171307 33.826134 18.520746 11.717973 12.3392 24.500907 31.238827 38.35904 56.68864h42.33216zM516.911787 631.743147c0 14.363307 4.846933 26.456747 14.55104 36.283733 9.69728 9.826987 21.602987 14.738773 35.71712 14.738773 14.359893 0 26.514773-4.911787 36.471466-14.738773 9.949867-9.826987 14.92992-21.920427 14.92992-36.283733 0-13.861547-5.044907-25.828693-15.117653-35.904854-10.082987-10.079573-22.176427-15.117653-36.283733-15.117653-13.861547 0-25.698987 4.973227-35.525974 14.92992-9.826987 9.946453-14.742187 21.978453-14.742186 36.092587z"  horiz-adv-x="1024" />

    
    <glyph glyph-name="lianjie" unicode="&#58894;" d="M370.6 507.8m-142.1 0a142.1 142.1 0 1 1 284.2 0 142.1 142.1 0 1 1-284.2 0ZM557.2 613.1m-36.8 0a36.8 36.8 0 1 1 73.6 0 36.8 36.8 0 1 1-73.6 0ZM677.8 341.3m-58.2 0a58.2 58.2 0 1 1 116.4 0 58.2 58.2 0 1 1-116.4 0ZM531.3 361.3c-3.6 0-7.3 1.4-10.1 4.2-5.6 5.6-5.6 14.6 0 20.1L630.6 495c5.6 5.6 14.6 5.6 20.1 0 5.6-5.6 5.6-14.6 0-20.1L541.3 365.5c-2.8-2.8-6.4-4.2-10-4.2zM406.9 176.6c-34.1 0-68.2 13-94.1 38.9-51.9 51.9-51.9 136.3 0 188.2l138.6 138.6c5.6 5.6 14.6 5.6 20.1 0s5.6-14.6 0-20.1L332.9 383.6c-40.8-40.8-40.8-107.2 0-148s107.2-40.8 148 0L695.3 450c25.9 25.9 25.9 68 0 93.8-25.1 25.1-68.8 25-93.8 0l-207-207c-10.8-10.7-10.8-28.2 0-39 10.7-10.7 28.2-10.7 39 0l38 37.9c5.6 5.6 14.6 5.6 20.1 0 5.6-5.6 5.6-14.6 0-20.1l-38-37.9c-21.8-21.8-57.4-21.8-79.2 0-21.8 21.8-21.8 57.4 0 79.2l207 207c36.9 36.9 97.1 37 134 0 37-37 36.9-97.1 0-134L501 215.5c-25.9-26-60-38.9-94.1-38.9z"  horiz-adv-x="1024" />

    
    <glyph glyph-name="bookmark-fill-01" unicode="&#59040;" d="M197.57462 621.81959062a171.75172781 171.75172781 0 0 0-85.09041375 24.87258282C43.88824156 685.44103875 12.99387594 761.36787 44.15005812 814.77846844a101.06123063 101.06123063 0 0 0 78.54499782 47.91244781 166.77721125 166.77721125 0 0 0 102.89394656-22.77804844 166.51539469 166.51539469 0 0 0 70.95231469-78.54499781 101.06123063 101.06123063 0 0 0-2.61816657-91.37401406 101.06123063 101.06123063 0 0 0-78.54499781-47.91244875 142.69007906 142.69007906 0 0 0-17.80353281-0.26181656zM139.71313813 837.81833437a117.81749625 117.81749625 0 0 1-14.39991563 0 75.66501469 75.66501469 0 0 1-58.64693156-36.13069875c-23.82531562-41.10521531 2.61816656-100.79941313 58.90874812-133.26468a140.59554562 140.59554562 0 0 1 86.3994975-19.37443218 75.66501469 75.66501469 0 0 1 58.64693157 35.0834325 75.66501469 75.66501469 0 0 1 1.04726625 67.28688093 140.33372906 140.33372906 0 0 1-59.95601438 65.97779813A145.57006219 145.57006219 0 0 1 139.71313813 837.81833437zM1043.50424375 248.73085218999995l-528.60783375 523.63331719a61.52691469 61.52691469 0 0 1-40.05794906 18.32716593L190.76738656 785.45500219a16.75626656 16.75626656 0 0 1-16.49444906-16.49444907l-5.49814969-292.97284125a50.26879875 50.26879875 0 0 1 15.97081594-32.465265l528.60783375-523.63331718a52.36333125 52.36333125 0 0 1 75.14138062 0l255.00942563 255.53305875a52.36333125 52.36333125 0 0 1 0 73.30866375zM291.0431675 615.27417469a60.21783188 60.21783188 0 1 0 60.21783094 60.21783094 60.21783188 60.21783188 0 0 0-59.17056469-61.26509813z"  horiz-adv-x="1096" />

    
    <glyph glyph-name="icon" unicode="&#58886;" d="M395.923761 474.901883a116.044775 114.338234 0 1 1 232.08955 0 116.044775 114.338234 0 1 1-232.08955 0ZM511.968536 895.990827A423.862074 423.862074 0 0 1 85.333333 474.901883a421.728897 421.728897 0 0 1 306.537393-403.810219l-5.33294 77.220971A350.267501 350.267501 0 0 0 157.648 474.901883a354.320536 354.320536 0 0 0 708.641071 0 350.267501 350.267501 0 0 0-228.889786-326.589248l-5.33294-77.220971A421.728897 421.728897 0 0 1 938.603738 474.901883 423.862074 423.862074 0 0 1 511.968536 895.990827zM511.968536 748.16173a272.406577 272.406577 0 0 1-125.217432-516.65523A183.239819 183.239819 0 0 0 411.495946 298.701544a202.651721 202.651721 0 1 0 304.830852 175.560386A201.371815 201.371815 0 0 0 612.441126 298.701544a183.239819 183.239819 0 0 0 24.744842-67.834997A272.406577 272.406577 0 0 1 511.968536 748.16173zM536.50006-127.93365800000004h-49.063048a44.156743 44.156743 0 0 0-45.863285 36.263992l-30.717734 263.873873c-8.319386 78.714195 37.117263 152.522085 101.112543 152.522084s109.431929-73.80789 101.112543-152.522084L582.363344-91.669666a44.156743 44.156743 0 0 0-45.863284-36.263992z"  horiz-adv-x="1024" />

    
    <glyph glyph-name="shoucang" unicode="&#58908;" d="M845.9-114.7L557.1 54.7c-24.3 14.3-54.4 14.3-78.8 0l-288.8-169.4c-31.3-18.4-73.8-0.9-78.6 35.1-0.3 2.5-0.5 5-0.5 7.6V796.3c0 29.2 23.7 52.9 52.9 52.9H872c29.2 0 52.9-23.7 52.9-52.9V-72c0-2.6-0.2-5.1-0.5-7.6-4.8-36-47.2-53.5-78.5-35.1zM623.7 249.9l-101.5 54c-3.3 1.7-7.2 1.8-10.5 0l-102-53c-8.3-4.3-17.9 2.8-16.3 11.9l20 113.3c0.6 3.6-0.5 7.4-3.2 10l-82 80.7c-6.6 6.5-2.9 17.8 6.3 19.1l113.9 16c3.7 0.5 6.8 2.8 8.5 6.1l51.3 102.8c4.2 8.4 16.1 8.3 20.2-0.1l50.4-103.3c1.6-3.3 4.8-5.6 8.4-6.2l113.6-17c9.3-1.4 12.9-12.8 6.2-19.3L624.5 385c-2.7-2.6-3.9-6.3-3.3-9.9l18.9-113.4c1.5-9.3-8.1-16.2-16.4-11.8zM956.4 879.6h-889c-28.5 0-51.6-23.1-51.6-51.6v-0.3c0-28.5 23.1-51.6 51.6-51.6h889c28.5 0 51.6 23.1 51.6 51.6V828c0 28.5-23.1 51.6-51.6 51.6z"  horiz-adv-x="1024" />

    
    <glyph glyph-name="tupian" unicode="&#58991;" d="M474.898551 465.623188m-311.652174 0a311.652174 311.652174 0 1 1 623.304348 0 311.652174 311.652174 0 1 1-623.304348 0ZM400.695652 643.710145h563.942029v-400.695652H400.695652zM118.724638 524.985507h563.942029v-400.695652H118.724638zM979.478261 228.173913h-118.724638v29.681159h89.043478V628.869565H415.536232v-59.362319h-29.68116v89.043479h593.623189zM222.608696 109.449275H103.884058V539.826087h593.623188v-89.043478h-29.681159v59.362319H133.565217v-371.014493h89.043479zM267.130435 406.26087h549.101449v-400.695653H267.130435zM831.072464-9.275362H252.289855V421.101449h578.782609v-430.376811z m-549.10145 29.681159h519.42029V391.42029H281.971014v-371.014493zM682.666667 287.536232m-44.521739 0a44.521739 44.521739 0 1 1 89.043478 0 44.521739 44.521739 0 1 1-89.043478 0ZM682.666667 228.173913c-32.649275 0-59.362319 26.713043-59.362319 59.362319s26.713043 59.362319 59.362319 59.362319 59.362319-26.713043 59.362319-59.362319-26.713043-59.362319-59.362319-59.362319z m0 89.043478c-16.324638 0-29.681159-13.356522-29.68116-29.681159s13.356522-29.681159 29.68116-29.68116 29.681159 13.356522 29.681159 29.68116-13.356522 29.681159-29.681159 29.681159zM623.304348 183.652174l-51.942029-51.942029L460.057971 243.014493 267.130435 50.086957v-44.52174h534.260869zM837.008696-9.275362H252.289855v65.29855l207.768116 207.768116 111.304348-111.304347 51.942029 51.942029L837.008696-9.275362zM281.971014 20.405797h483.802899L623.304348 162.875362l-31.165218-31.165217 41.553624-41.553623-20.776812-20.776812L460.057971 222.237681l-178.086957-178.086956V20.405797z"  horiz-adv-x="1083" />

    
    <glyph glyph-name="qian" unicode="&#59617;" d="M14.4 264.8l540 540 264-264-540-540-264 264zM324 310.4c51.2-51.2 134.4-51.2 185.6 0 51.2 51.2 51.2 134.4 0 185.6s-134.4 51.2-185.6 0-51.2-134.4 0-185.6zM392.8 417.6c-5.6 5.6-4 10.4 1.6 16s11.2 7.2 20.8 8l-1.6 25.6c-11.2 0-22.4-1.6-32.8-8.8L367.2 472l-16-16 14.4-14.4c-10.4-16-8.8-33.6 5.6-47.2 24-24 61.6 10.4 72-1.6 5.6-5.6 4.8-10.4-1.6-17.6-6.4-6.4-13.6-9.6-27.2-11.2l6.4-26.4c13.6 0.8 26.4 7.2 35.2 13.6l13.6-13.6 16 16-14.4 14.4c11.2 18.4 8 35.2-6.4 48.8-25.6 25.6-61.6-8.8-72 0.8zM534.4 784.8L35.2 285.6l-20.8-20.8 20.8-20.8 221.6-221.6 20.8-20.8 540 540-262.4 263.2-20.8-20z m228-217.6c-2.4-1.6-4-3.2-6.4-4.8-11.2-11.2-11.2-30.4 0-41.6 1.6-1.6 4-4 6.4-4.8L304 57.6c-1.6 2.4-3.2 4-4.8 6.4-11.2 11.2-30.4 11.2-41.6 0-1.6-1.6-4-4-4.8-6.4L71.2 239.2c2.4 1.6 4 3.2 6.4 4.8 11.2 11.2 11.2 30.4 0 41.6-1.6 1.6-4 4-6.4 4.8l458.4 458.4c1.6-2.4 3.2-4 4.8-6.4 11.2-11.2 30.4-11.2 41.6 0 1.6 1.6 4 4 4.8 6.4l181.6-181.6zM155.2 288l693.6 320.8 156.8-338.4L312-50.4 155.2 288zM460.8 224c30.4-65.6 108.8-94.4 174.4-64 65.6 30.4 94.4 108.8 64 174.4-30.4 65.6-108.8 94.4-174.4 64s-94.4-108.8-64-174.4zM821.6 596.8l-640-296-26.4-12.8 12.8-27.2L300-24l12.8-27.2 692 321.6L848 608.8l-26.4-12z m139.2-282.4l-7.2-2.4c-15.2-6.4-20.8-24.8-14.4-39.2 1.6-2.4 2.4-4.8 4-6.4l-588-272-2.4 7.2c-6.4 15.2-24.8 20.8-39.2 14.4-2.4-1.6-4.8-2.4-6.4-4l-108 232 7.2 2.4c15.2 6.4 20.8 24.8 14.4 39.2-1.6 2.4-2.4 4.8-4 6.4l588 272 2.4-7.2c6.4-15.2 24.8-20.8 39.2-14.4 2.4 1.6 4.8 2.4 6.4 4l108-232z"  horiz-adv-x="1024" />

    
    <glyph glyph-name="paihangbang" unicode="&#58901;" d="M742.6-63.89999999999998L512 33.60000000000002l-230.6-97.5V290.6h461.2zM166.2 486.1c0-123.5 65.9-237.7 172.9-299.5 107-61.8 238.8-61.8 345.8 0s172.9 175.9 172.9 299.5c0 191-154.8 345.8-345.8 345.8S166.2 677.1 166.2 486.1zM281.4 486.1c0-127.4 103.2-230.6 230.6-230.6 127.4 0 230.6 103.2 230.6 230.6 0 127.4-103.2 230.6-230.6 230.6-127.4 0-230.6-103.2-230.6-230.6zM523.4 626.5l38-76.8c1.8-3.8 5.5-6.3 9.6-6.9l84.8-12.4c10.4-1.5 14.6-14.3 7-21.6L601.4 449c-3-2.9-4.4-7.2-3.6-11.2l14.4-84.4c1.8-10.3-9.1-18.2-18.4-13.3l-81.8 43-81.7-42.9c-9.3-4.9-20.1 3-18.4 13.3l14.4 84.4c0.7 4.1-0.6 8.3-3.6 11.2l-61.4 59.8c-7.5 7.3-3.4 20.1 7 21.6l84.8 12.4c4.1 0.6 7.6 3.2 9.6 6.9l38 76.8c4.6 9.4 18.1 9.4 22.7-0.1z"  horiz-adv-x="1024" />

    
    <glyph glyph-name="ziyuan" unicode="&#58973;" d="M0 896h1024v-1024H0zM103.92 56.27l309.86 346 143.07-173L666.66 354.4Q897.45 164.87 898.59 153t0-122.56zM802.34 261.59l-106 103.06a31.76 31.76 0 0 1-43.85 0 25.77 25.77 0 0 1-4.78-6.11l-85.59-83.17-121.51 118.12a31.54 31.54 0 0 1-24.54 8.69 31.42 31.42 0 0 1-24.54-8.69L210.18 217.25a29.63 29.63 0 0 1 0-42.61 31.76 31.76 0 0 1 43.85 0l162 157.47 162-157.47a31.76 31.76 0 0 1 43.85 0 29.63 29.63 0 0 1 0 42.61L606 232.75 675.21 300l83.37-81a31.76 31.76 0 0 1 43.85 0 29.71 29.71 0 0 1-0.09 42.59zM885 430.33a29.26 29.26 0 1 0 58.51 0v-357.19a65.83 65.83 0 0 0-65.83-65.83H146.29a65.83 65.83 0 0 0-65.83 65.83V676.57a65.83 65.83 0 0 0 65.83 65.83H628.9a29.26 29.26 0 1 0 0-58.51H146.29a7.32 7.32 0 0 1-7.32-7.32v-603.43a7.31 7.31 0 0 1 7.32-7.31h731.42a7.31 7.31 0 0 1 7.32 7.31zM920 588.48l-34.24-34.23a24.45 24.45 0 0 0-34.58 34.58l34.23 34.23c18.91 18.91 18.76 49.72-0.34 68.82s-49.91 19.25-68.82 0.35L782 658a24.45 24.45 0 0 0-34.58 34.58l34.24 34.24c37.82 37.82 99.45 37.51 137.64-0.69s38.51-99.83 0.7-137.65z m-189-50.67a24.34 24.34 0 0 0-0.17 34.41l68.48 68.48a24.45 24.45 0 0 0 34.58-34.58l-68.48-68.48a24.34 24.34 0 0 0-34.41 0.17z m-17.46 51.7l-34.24-34.24c-18.91-18.9-18.76-49.71 0.34-68.81s49.91-19.25 68.82-0.35l34.24 34.24a24.45 24.45 0 0 0 34.58-34.58L783 451.53c-37.81-37.81-99.44-37.51-137.63 0.69s-38.47 99.78-0.65 137.64L679 624.1a24.45 24.45 0 0 0 34.58-34.58z"  horiz-adv-x="1024" />

    
    <glyph glyph-name="xiangji1" unicode="&#58957;" d="M507.4 101.8c-113.8 0-207.1 93.3-207.1 207.1S393.6 516 507.4 516s207.1-93.3 207.1-207.1-93.3-207.1-207.1-207.1z m434.7 507.5c-25 25-54.6 36.4-88.7 36.4H744.1l-25 66c-6.8 15.9-18.2 29.6-34.1 41s-34.1 18.2-50.1 18.2H384.6c-18.2 0-34.1-6.8-50.1-18.2-15.9-11.4-27.3-25-34.1-41l-27.3-66H161.6c-34.1 0-63.7-11.4-88.7-36.4s-36.4-54.6-36.4-88.7v-439.2c0-34.1 11.4-63.7 36.4-88.7s54.6-36.4 88.7-36.4h691.8c34.1 0 63.7 11.4 88.7 36.4s36.4 54.6 36.4 88.7V520.5c0 34.2-11.4 63.7-36.4 88.8zM507.4 445.4c-77.4 0-138.8-61.4-138.8-138.8S430 167.8 507.4 167.8s138.8 61.4 138.8 138.8-61.4 138.8-138.8 138.8z"  horiz-adv-x="1024" />

    
    <glyph glyph-name="follow-up" unicode="&#58887;" d="M0 896m256 0l512 0q256 0 256-256l0-512q0-256-256-256l-512 0q-256 0-256 256l0 512q0 256 256 256ZM728.128 538.88a216.96 216.96 0 1 1-343.872-176l-0.768-0.384A326.016 326.016 0 0 1 279.04 291.968a326.72 326.72 0 0 1-70.4-104.576 326.912 326.912 0 0 1-25.728-120.832 7.04 7.04 0 0 1 7.04-7.168h52.416a7.04 7.04 0 0 1 7.04 6.784 261.12 261.12 0 0 0 76.608 178.816 259.328 259.328 0 0 0 185.024 76.864 216.96 216.96 0 0 1 217.024 216.96z m-216.96-150.528a150.464 150.464 0 1 0 0 300.992 150.464 150.464 0 0 0 0-300.992z m91.84-193.344h231.04c3.84 0 6.976 3.2 6.976 7.04v48.96a7.04 7.04 0 0 1-7.04 7.04h-154.432l41.28 52.48a7.04 7.04 0 0 1-5.504 11.264l-63.488 0.064a14.272 14.272 0 0 1-11.072-5.312l-59.904-76.16a28.096 28.096 0 0 1 22.144-45.44z m209.984-56h-231.04a7.04 7.04 0 0 1-6.976-7.04v-48.96c0-3.84 3.2-7.04 7.04-7.04h154.432l-41.28-52.544a7.04 7.04 0 0 1 5.504-11.264h63.488c4.288 0 8.32 1.92 11.072 5.312l59.904 76.16a28.096 28.096 0 0 1-22.144 45.376z"  horiz-adv-x="1024" />

    
    <glyph glyph-name="paihang" unicode="&#59064;" d="M218.42 784h587.16v-426.42C805.58 195.44 674.14 64 512 64S218.42 195.44 218.42 357.58V784zM509.59 443.513l-53.56-24.589c-6.264-2.876-13.673-0.13-16.549 6.135a12.48 12.48 0 0 0-1.054 6.65l6.823 58.586a12.48 12.48 0 0 1-3.214 9.896l-39.941 43.389c-4.668 5.071-4.341 12.966 0.73 17.634a12.48 12.48 0 0 0 5.994 3.054l57.79 11.61a12.48 12.48 0 0 1 8.421 6.12l28.887 51.396c3.377 6.008 10.986 8.141 16.994 4.764a12.48 12.48 0 0 0 4.765-4.764l28.887-51.396a12.48 12.48 0 0 1 8.421-6.12l57.79-11.61c6.758-1.358 11.135-7.936 9.778-14.694a12.48 12.48 0 0 0-3.054-5.994l-39.94-43.389a12.48 12.48 0 0 1-3.215-9.896l6.824-58.585c0.797-6.847-4.107-13.043-10.953-13.84a12.48 12.48 0 0 0-6.65 1.054l-53.56 24.59a12.48 12.48 0 0 1-10.414 0zM406 4m25 0l162.377 0q25 0 25-25l0 0q0-25-25-25l-162.377 0q-25 0-25 25l0 0q0 25 25 25ZM805.58 784H943v-143.83c0-75.895-61.525-137.42-137.42-137.42V784zM218.42 784v-281.25C142.525 502.75 81 565.71 81 643.375V784h137.42z"  horiz-adv-x="1024" />

    
    <glyph glyph-name="sousuo2" unicode="&#58926;" d="M782.381922 583.897613a49.757746 49.757746 0 1 1 96.851966 22.869848 49.757746 49.757746 0 1 1-96.851966-22.869848ZM1009.643881-27.042254l-177.397184 177.397184c54.805634 75.71831 87.977465 169.464789 87.977465 269.701408v0.721127c0 36.056338-38.940845 58.411268-69.949296 40.383098l-5.047887-3.605633c-14.422535-8.653521-23.797183-23.797183-23.797183-41.104226 2.884507-212.011268-186.050704-372.822535-389.408451-357.678873-176.676056 12.980282-319.459155 155.76338-332.439436 332.439437-15.864789 212.011268 152.157746 389.408451 360.56338 389.40845 87.256338 0 167.301408-31.008451 230.039437-82.929577 15.864789-13.701408 38.940845-15.864789 56.969014-5.047887 29.566197 17.307042 33.892958 58.411268 7.211267 80.04507C669.27205 844.078873 558.218528 884.461972 437.790359 878.692958 196.934021 867.876056 4.393176 668.84507 0.066416 427.988732c-4.326761-257.442254 203.357746-468.011268 460.078873-468.011267 117.543662 0 224.270423 43.988732 305.757746 116.822535l173.79155-173.791549c19.470423-19.470423 50.478873-19.470423 69.949296 0 19.470423 19.470423 19.470423 50.478873 0 69.949295z"  horiz-adv-x="1024" />

    
    <glyph glyph-name="more" unicode="&#59185;" d="M68.995 383.999a105.776 105.776 0 1 1 216.484 0 105.776 105.776 0 1 1-216.484 0z m334.796 0a105.775 105.775 0 1 1 216.481 0 105.775 105.775 0 1 1-216.482 0z m334.729 0a105.776 105.776 0 1 1 216.484 0 105.776 105.776 0 1 1-216.484 0z"  horiz-adv-x="1024" />

    
    <glyph glyph-name="xiangji2" unicode="&#58951;" d="M0 516.778667a378.039795 378.039795 0 0 1 189.650051-327.574975 380.245333 380.245333 0 0 1 379.313231 0 378.039795 378.039795 0 0 1 189.650051 327.574975A378.039795 378.039795 0 0 1 568.963282 844.353641a380.245333 380.245333 0 0 1-379.313231 0A378.039795 378.039795 0 0 1 0 516.778667zM1014.232615-124.573538H140.182974C62.674051-124.573538 0-62.083282 0 15.228718V590.769231c0 77.285744 62.674051 139.776 140.182974 139.776h123.680821v24.667897C263.876923 832.512 326.537846 895.002256 404.046769 895.002256h346.322052c77.508923 0 140.182974-62.490256 140.182974-139.776v-24.681025h123.68082c77.508923 0 140.182974-62.490256 140.182975-139.762872v-575.566769c0-77.298872-62.674051-139.789128-140.182975-139.789128z m57.724718 715.355897c0 31.245128-26.387692 57.554051-57.724718 57.554051H849.316103a40.776205 40.776205 0 0 0-41.222565 41.104411v65.772307c0 31.245128-26.387692 57.567179-57.724717 57.56718h-346.322052c-31.337026 0-57.724718-26.308923-57.724718-57.554052v-65.772307a40.776205 40.776205 0 0 0-41.222564-41.117539H140.182974c-31.337026 0-57.724718-26.308923-57.724718-57.554051v-575.566769c0-31.245128 26.387692-57.567179 57.724718-57.56718h874.049641c31.337026 0 57.724718 26.322051 57.724718 57.56718V590.769231zM577.207795 89.206154c-118.744615 0-214.38359 95.389538-214.38359 213.79282 0 118.390154 95.638974 213.779692 214.38359 213.779693 118.731487 0 214.38359-95.389538 214.38359-213.779693 0-118.41641-95.652103-213.792821-214.38359-213.79282z m0 345.350564c-72.55959 0-131.938462-59.208205-131.938462-131.557744 0-72.362667 59.378872-131.557744 131.938462-131.557743 72.55959 0 131.938462 59.195077 131.938461 131.544615 0 72.362667-59.378872 131.570872-131.938461 131.570872z"  horiz-adv-x="1155" />

    
    <glyph glyph-name="techreport--copy-copy" unicode="&#58892;" d="M957.31 527.75L903.1 163.88c-6-40.19-33.93-71.32-69.35-82.48a96.61 96.61 0 0 0-44.19-3.26L213.21 169c-39.51 6.23-70 35.53-80.55 72.54l90.55 64.06L363.29 194l193.4 234.78L847.8 214.33000000000004V502c0 56.57-44.59 102.43-99.6 102.43H177.34l6.73 45.17c8.33 55.92 59.16 94.3 113.53 85.73l576.35-90.83c54.37-8.56 91.69-60.83 83.36-116.75zM804.86 64.42999999999995a110.71 110.71 0 0 0-17.24 1.36l-576.35 90.83c-42.89 6.76-78.46 38.74-90.62 81.47a12.5 12.5 0 0 0 4.8 13.62L216 315.78a12.5 12.5 0 0 0 15-0.43l130.45-103.9L547 436.73a12.5 12.5 0 0 0 17.06 2.12L835.3 239.07000000000005V502c0 49.59-39.07 89.93-87.1 89.93H177.34A12.5 12.5 0 0 0 165 606.29l6.73 45.17a114.5 114.5 0 0 0 45.56 76.09 109.35 109.35 0 0 0 82.29 20.14l576.35-90.83c61-9.62 103.11-68.37 93.78-131L915.46 162A115.87 115.87 0 0 0 889 103.62a112.1 112.1 0 0 0-51.45-34.14 108.3 108.3 0 0 0-32.69-5.05zM147.47 236.67999999999995c11.42-29.21 37.19-50.55 67.69-55.36l576.35-90.83a83.72 83.72 0 0 1 38.49 2.84c31.84 10 55.68 38.44 60.74 72.4l54.21 363.87c7.31 49.07-25.41 95.08-72.95 102.58L295.65 723a84.54 84.54 0 0 1-63.6-15.6 89.67 89.67 0 0 1-35.62-59.63l-4.59-30.82h556.37c61.81 0 112.1-51.56 112.1-114.93v-287.69a12.5 12.5 0 0 0-19.91-10.06L558.81 411.7 372.93 186.07000000000005a12.5 12.5 0 0 0-17.44-1.83L222.77 290zM748.21 19H165.12C103.31 19 53 70.51999999999998 53 133.89V502c0 63.37 50.29 114.93 112.1 114.93h583.11c61.81 0 112.1-51.56 112.1-114.93v-368.11C860.3 70.51999999999998 810 19 748.21 19zM165.13 592c-48 0-87.1-40.34-87.1-89.93v-368.18C78 84.29999999999995 117.1 44 165.12 44h583.09c48 0 87.1 40.34 87.1 89.93V502c0 49.59-39.07 89.93-87.1 89.93zM748.21 19H165.12C103.31 19 53 70.51999999999998 53 133.89V194a12.5 12.5 0 0 0 5.28 10.2L216 315.78a12.5 12.5 0 0 0 15-0.43l130.45-103.9L547 436.73a12.5 12.5 0 0 0 17.06 2.12L855.22 224.39999999999998a12.5 12.5 0 0 0 5.09-10.06v-80.44a117 117 0 0 0-15.75-58.77 114.17 114.17 0 0 0-40.07-40.64A109.94 109.94 0 0 0 748.21 19zM78 187.53999999999996v-53.65C78 84.29999999999995 117.1 44 165.12 44h583.09c30.88 0 58.82 16.35 74.74 43.73a92 92 0 0 1 12.36 46.21V208l-276.5 203.7-185.88-225.63a12.5 12.5 0 0 0-17.44-1.83L222.77 290zM847.8 214.33000000000004v-80.44a104.16 104.16 0 0 0-14.05-52.49c-17.39-29.91-49.19-49.94-85.54-49.94H165.12c-55 0-99.6 45.86-99.6 102.43V194l67.14 47.5 90.55 64.06L363.29 194l193.4 234.78zM748.21 19H165.12C103.31 19 53 70.51999999999998 53 133.89V194a12.5 12.5 0 0 0 5.28 10.2L216 315.78a12.5 12.5 0 0 0 15-0.43l130.45-103.9L547 436.73a12.5 12.5 0 0 0 17.06 2.12L855.22 224.39999999999998a12.5 12.5 0 0 0 5.09-10.06v-80.44a117 117 0 0 0-15.75-58.77 114.17 114.17 0 0 0-40.07-40.64A109.94 109.94 0 0 0 748.21 19zM78 187.53999999999996v-53.65C78 84.29999999999995 117.1 44 165.12 44h583.09c30.88 0 58.82 16.35 74.74 43.73a92 92 0 0 1 12.36 46.21V208l-276.5 203.7-185.88-225.63a12.5 12.5 0 0 0-17.44-1.83L222.77 290zM226.91 477.9m-69.43 0a69.43 69.43 0 1 1 138.86 0 69.43 69.43 0 1 1-138.86 0ZM226.91 396a81.93 81.93 0 1 0 81.93 81.93A82 82 0 0 0 226.91 396z m0 138.86a56.93 56.93 0 1 1 56.93-56.93 57 57 0 0 1-56.93 56.9z"  horiz-adv-x="1024" />

    
    <glyph glyph-name="sousuo3" unicode="&#58943;" d="M609.21 285.9m-192.8 0a192.8 192.8 0 1 1 385.6 0 192.8 192.8 0 1 1-385.6 0ZM476.38 773.09c47.63 0 93.8-9.31 137.23-27.68 41.98-17.76 79.69-43.19 112.1-75.59s57.83-70.12 75.59-112.1c18.37-43.43 27.68-89.6 27.68-137.23s-9.31-93.8-27.68-137.23c-17.76-41.98-43.19-79.69-75.59-112.1-32.4-32.4-70.12-57.83-112.1-75.59-43.43-18.37-89.6-27.68-137.23-27.68s-93.8 9.31-137.23 27.68c-41.98 17.76-79.69 43.19-112.1 75.59-32.4 32.4-57.83 70.12-75.59 112.1-18.37 43.43-27.68 89.6-27.68 137.23s9.31 93.8 27.68 137.23c17.76 41.98 43.19 79.69 75.59 112.1 32.4 32.4 70.12 57.83 112.1 75.59 43.43 18.36 89.6 27.68 137.23 27.68m0 60c-227.87 0-412.6-184.73-412.6-412.6 0-227.87 184.73-412.6 412.6-412.6 227.87 0 412.6 184.73 412.6 412.6-0.01 227.87-184.73 412.6-412.6 412.6zM896.17-30.17c-7.68 0-15.36 2.93-21.21 8.79l-83.62 83.62c-11.72 11.72-11.72 30.71 0 42.43 11.71 11.72 30.71 11.72 42.43 0l83.62-83.62c11.72-11.72 11.72-30.71 0-42.43-5.86-5.87-13.54-8.79-21.22-8.79z"  horiz-adv-x="1024" />

    
    <glyph glyph-name="tujiguanli" unicode="&#58949;" d="M893.465859 127.431111v63.09495c20.48 13.239596 25.444848 35.891717 25.444848 61.957171V659.393939c0 40.96-46.131717 58.130101-87.195151 58.130101h-581.301011c-23.272727 0-15.411717-12.308687-29.06505-29.06505H163.219394c3.309899 56.888889 42.097778 87.298586 87.608889 87.298586h628.880808c53.785859 0 97.331717-43.442424 97.331717-97.124849V223.418182c0-48.924444-36.305455-89.367273-83.574949-95.987071zM773.585455 630.328889H134.154343c-53.785859 0-87.195152-33.616162-87.195151-87.195152v-455.111111c0-53.682424 43.545859-97.124848 97.331717-97.124848h628.880808c53.785859 0 87.608889 33.616162 87.608889 87.195151V543.133737c0 53.57899-14.99798 87.195152-87.195151 87.195152z m29.06505-523.067475c0-20.273131-8.791919-58.130101-29.06505-58.130101H134.154343c-20.273131 0-23.169293 23.686465-23.169292 43.959596V541.375354c0 20.169697 16.446061 36.615758 36.719191 36.615757L773.585455 572.198788c20.273131 0 29.065051-8.791919 29.06505-29.065051v-435.872323zM176.82101 101.67596s43.907879 365.304242 129.202424 359.317979c24.746667-1.861818 58.375758-44.140606 124.754748-206.183434 10.433939-25.703434 66.055758-115.626667 106.162424-49.726061 15.838384 26.117172 24.578586 77.459394 50.941414 86.186667 13.989495 4.848485 59.099798-8.003232 143.023839-189.608081H176.82101zM559.747879 454.710303a64.853333 64.853333 0 0 1 32.426666-56.164848 64.830061 64.830061 0 0 1 64.840404 0 64.853333 64.853333 0 0 1 32.426667 56.164848c0 23.169293-12.360404 44.580202-32.426667 56.151919a64.830061 64.830061 0 0 1-64.840404 0 64.815838 64.815838 0 0 1-32.426666-56.151919"  horiz-adv-x="1024" />

    
    <glyph glyph-name="lianjie1" unicode="&#58992;" d="M302.7-63.1c-31.5 0-62.3 6.1-91.4 18.2-29.3 12.1-55.5 29.6-77.8 52-45.2 45.3-70.1 105.5-70.1 169.5s24.9 124.2 70.1 169.5l121.7 121.7c12.5 12.5 32.8 12.5 45.3 0s12.5-32.8 0-45.3L178.7 300.9c-68.3-68.5-68.3-180 0-248.6 32.6-32.7 77.8-51.4 123.9-51.4h0.7c46.2 0 91.3 18.7 124 51.4L549 174c12.5 12.5 32.8 12.5 45.3 0s12.5-32.8 0-45.3L472.6 7.1c-22.3-22.4-48.5-39.9-77.7-52-29.2-12.1-59.9-18.2-91.5-18.2h-0.7z m443.5 357c-8.2 0-16.4 3.1-22.6 9.4-12.5 12.5-12.5 32.8 0 45.3L843 468c68.4 68.5 68.4 180.1 0 248.6-68.5 68.3-180 68.3-248.6-0.1L475 597.1c-12.5-12.5-32.8-12.5-45.3 0s-12.5 32.8 0 45.3l119.5 119.5C594.5 807.1 654.7 832 718.7 832s124.2-24.9 169.5-70.1c45.3-45.4 70.2-105.6 70.2-169.6s-24.9-124.2-70.1-169.5L768.8 303.3c-6.2-6.2-14.4-9.4-22.6-9.4zM382.4 224c-8.2 0-16.4 3.1-22.6 9.4-12.5 12.5-12.5 32.8 0 45.3l256.1 256.2c12.5 12.5 32.8 12.5 45.3 0s12.5-32.8 0-45.3L405.1 233.4c-6.3-6.2-14.5-9.4-22.7-9.4z"  horiz-adv-x="1024" />

    
    <glyph glyph-name="back-to-top" unicode="&#58893;" d="M467.2 336m-432 0a432 432 0 1 1 864 0 432 432 0 1 1-864 0ZM512 896C230.4 896 0 665.6 0 384s230.4-512 512-512 512 230.4 512 512S793.6 896 512 896z m0-976C256-80 48 128 48 384S256 848 512 848 976 640 976 384 768-80 512-80zM528 454.4c-3.2 6.4-12.8 9.6-19.2 9.6-6.4 0-16-3.2-19.2-9.6l-156.8-220.8c-6.4-9.6-6.4-25.6 6.4-32 3.2-3.2 9.6-3.2 12.8-3.2 6.4 0 16 3.2 19.2 9.6l134.4 192 140.8-192c6.4-9.6 22.4-12.8 32-6.4 9.6 6.4 12.8 22.4 6.4 32l-156.8 220.8zM668.8 569.6H352c-12.8 0-25.6-9.6-25.6-25.6s9.6-25.6 25.6-25.6h316.8c12.8 0 25.6 9.6 25.6 25.6s-12.8 25.6-25.6 25.6z"  horiz-adv-x="1024" />

    
    <glyph glyph-name="shoucang-copy" unicode="&#58888;" d="M650.971429 686.32381l43.885714-90.209524 265.752381-39.009524c26.819048-4.87619 51.2-21.942857 58.514286-46.32381 9.752381-24.380952 2.438095-53.638095-17.066667-70.704762l-195.047619-190.171428L853.333333-15.847619000000009c4.87619-26.819048-7.314286-53.638095-29.257143-68.266667-12.190476-7.314286-26.819048-12.190476-41.447619-12.190476-12.190476 0-24.380952 2.438095-36.571428 9.752381l-231.619048 121.904762-117.028571-60.952381c-80.457143 121.904762-102.4 285.257143-63.390476 412.038095 46.32381 156.038095 156.038095 263.314286 316.952381 299.885715zM499.809524 783.847619c9.752381 0 29.257143-4.87619 34.133333-12.190476l102.4-216.990476c4.87619-12.190476 17.066667-19.504762 31.695238-21.942857l248.685715-34.133334c9.752381-2.438095 17.066667-7.314286 19.504761-14.628571 2.438095-7.314286 0-14.628571-4.87619-21.942857l-185.295238-168.228572c-9.752381-9.752381-14.628571-21.942857-12.190476-34.133333L780.190476 13.409524000000033c2.438095-7.314286-2.438095-17.066667-9.752381-21.942857-4.87619-2.438095-9.752381-4.87619-14.628571-4.876191-4.87619 0-7.314286 0-12.190476 2.438095l-209.676191 121.904762c-9.752381 2.438095-14.628571 4.87619-21.942857 4.876191-7.314286 0-12.190476-2.438095-19.504762-4.876191l-212.114286-121.904762c-4.87619-2.438095-7.314286-2.438095-12.190476-2.438095s-9.752381 2.438095-14.628571 4.876191c-7.314286 4.87619-9.752381 12.190476-9.752381 21.942857l48.761905 246.247619c2.438095 12.190476-2.438095 26.819048-12.190477 34.133333L97.52381 459.580952c-4.87619 4.87619-7.314286 14.628571-4.876191 21.942858 2.438095 7.314286 9.752381 14.628571 19.504762 14.628571L358.4 530.285714c14.628571 2.438095 24.380952 9.752381 31.695238 21.942857l102.4 216.990477c4.87619 7.314286 12.190476 12.190476 21.942857 12.190476l-14.628571 2.438095zM512 871.619048c-29.257143 0-53.638095-14.628571-65.828571-41.447619l-117.028572-234.057143-265.752381-39.009524c-26.819048-4.87619-51.2-21.942857-58.514286-46.32381-9.752381-24.380952-2.438095-53.638095 17.066667-70.704762l195.047619-190.171428L170.666667-15.847619000000009c-4.87619-26.819048 7.314286-53.638095 29.257143-68.266667 12.190476-7.314286 26.819048-12.190476 41.447619-12.190476 12.190476 0 24.380952 2.438095 36.571428 9.752381l231.619048 121.904762 231.619047-121.904762c12.190476-4.87619 24.380952-9.752381 36.571429-9.752381 14.628571 0 29.257143 4.87619 41.447619 12.190476 21.942857 14.628571 34.133333 41.447619 29.257143 68.266667l-46.32381 263.314286 195.047619 190.171428c19.504762 19.504762 26.819048 46.32381 17.066667 70.704762-9.752381 24.380952-31.695238 43.885714-58.514286 46.32381l-265.752381 39.009523-117.028571 234.057143C565.638095 856.990476 541.257143 871.619048 512 871.619048z"  horiz-adv-x="1024" />

    
    <glyph glyph-name="shezhi" unicode="&#58889;" d="M550.990769 885.418667l380.717949-216.930462A78.769231 78.769231 0 0 0 971.487179 600.037744v-432.075488a78.769231 78.769231 0 0 0-39.778461-68.450461l-380.717949-216.930462a78.769231 78.769231 0 0 0-77.981538 0l-380.717949 216.930462A78.769231 78.769231 0 0 0 52.512821 167.962256V600.037744a78.769231 78.769231 0 0 0 39.778461 68.450461l380.717949 216.930462a78.769231 78.769231 0 0 0 77.981538 0zM512 384m-275.692308 0a275.692308 275.692308 0 1 1 551.384616 0 275.692308 275.692308 0 1 1-551.384616 0ZM512 384m-118.153846 0a118.153846 118.153846 0 1 1 236.307692 0 118.153846 118.153846 0 1 1-236.307692 0Z"  horiz-adv-x="1024" />

    
    <glyph glyph-name="jianjiex" unicode="&#58983;" d="M547.968 329.386667v-47.786667c0-22.528-12.288-36.181333-29.354667-36.181333-18.432 0-29.354667 13.653333-29.354666 36.181333v50.517333c0 51.2 12.970667 69.632 53.248 92.16 37.546667 19.797333 60.074667 37.546667 60.074666 72.362667 0 50.517333-32.085333 90.112-83.968 87.381333-36.181333-1.365333-65.536-15.701333-79.872-63.488-6.826667-19.114667-21.845333-26.624-33.450666-25.258666-12.288 0-22.528 11.605333-21.162667 31.402666C387.541333 593.578667 453.077333 640 517.248 640c85.333333 0 145.408-58.026667 145.408-137.216 0-53.248-26.624-91.477333-64.170667-111.957333-40.277333-22.528-50.517333-39.594667-50.517333-61.44z m-65.536-195.925334c0 20.48 16.384 37.546667 36.181333 37.546667 18.432 0 34.816-17.066667 34.816-37.546667 0-18.432-16.384-35.498667-34.816-35.498666-19.797333 0-36.181333 17.066667-36.181333 35.498666zM512-70.4c250.965333 0 454.4 203.434667 454.4 454.4 0 250.965333-203.434667 454.4-454.4 454.4C261.034667 838.4 57.6 634.965333 57.6 384c0-250.965333 203.434667-454.4 454.4-454.4z m0 55.466667a398.933333 398.933333 0 1 0 0 797.866666 398.933333 398.933333 0 0 0 0-797.866666z"  horiz-adv-x="1024" />

    
    <glyph glyph-name="jichu" unicode="&#58944;" d="M896.930909 410.996364l-136.378182 80.290909a44.683636 44.683636 0 0 1-44.450909 0l-130.327273-76.567273a23.272727 23.272727 0 0 1 0-37.934545L721.454545 296.72727299999997a43.52 43.52 0 0 1 44.45091 0l130.327272 76.567272a23.272727 23.272727 0 0 1 0.698182 37.701819zM359.563636 509.905455L488.727273 433.338182a43.985455 43.985455 0 0 1 44.683636 0l130.094546 76.567273a23.272727 23.272727 0 0 1 0 37.934545L535.272727 624.407273a44.916364 44.916364 0 0 1-44.683636 0L359.563636 546.909091a23.272727 23.272727 0 0 1 0-37.003636zM127.069091 373.29454499999997l130.327273-76.567272a43.52 43.52 0 0 1 44.450909 0l136.378182 80.058182a23.272727 23.272727 0 0 1 0 37.934545l-130.327273 76.567273a44.683636 44.683636 0 0 1-44.450909 0l-136.378182-80.290909a23.272727 23.272727 0 0 1 0-37.701819zM585.774545 640L721.454545 560.8727269999999a43.52 43.52 0 0 1 44.45091 0l130.327272 76.567273a23.272727 23.272727 0 0 1 0 37.701818L760.552727 756.363636a44.683636 44.683636 0 0 1-44.450909 0l-130.327273-76.567272a23.272727 23.272727 0 0 1 0-39.796364zM127.069091 637.44l130.327273-76.567273a43.52 43.52 0 0 1 44.450909 0l136.378182 79.127273a23.272727 23.272727 0 0 1 0 37.934545L307.898182 756.363636a44.683636 44.683636 0 0 1-44.450909 0L127.069091 675.1418180000001a23.272727 23.272727 0 0 1 0-37.701818zM881.338182 272.058182l-20.247273 12.101818a23.272727 23.272727 0 0 1-23.272727 0l-46.545455-27.694545a90.996364 90.996364 0 0 0-46.545454-12.101819 89.6 89.6 0 0 0-46.545455 12.334546l-81.454545 47.941818L562.269091 337.45454500000005a68.189091 68.189091 0 0 0-32.116364 46.545455 79.825455 79.825455 0 0 0-36.305454 0 68.189091 68.189091 0 0 0-32.116364-46.545455l-54.923636-32.34909L325.818182 256.465455a89.6 89.6 0 0 0-46.545455-12.101819 90.996364 90.996364 0 0 0-46.545454 12.334546l-46.545455 27.461818a23.272727 23.272727 0 0 1-23.272727 0l-20.48-12.101818a53.061818 53.061818 0 0 1 0-91.694546l315.345454-186.181818a106.821818 106.821818 0 0 1 107.985455 0l315.345455 186.181818a53.061818 53.061818 0 0 1 0.232727 91.694546z"  horiz-adv-x="1024" />

    
    <glyph glyph-name="xiangji3" unicode="&#59219;" d="M829.2 633.8H687.3l-41.7 66.6c0 9.2-24.2 16.6-33.4 16.6H411.8c-9.2 0-33.4-7.5-33.4-16.6l-41.7-66.6H194.8c-36.9 0-66.8-29.8-66.8-66.6v-449.6c0-36.8 29.9-66.6 66.8-66.6h634.4c36.9 0 66.8 29.8 66.8 66.6V567.2c0 36.8-29.9 66.6-66.8 66.6zM729 350.7c0-119.5-97.2-216.4-217-216.4s-217 96.9-217 216.5 97.2 216.5 217 216.5c119.9-0.1 217-97 217-216.6zM361.8 350.7c0-82.8 67.3-149.9 150.2-149.9s150.2 67.1 150.2 149.9S595 500.5 512 500.5s-150.2-67-150.2-149.8z"  horiz-adv-x="1024" />

    
    <glyph glyph-name="menu" unicode="&#58880;" d="M102.4 896h1126.4a102.4 102.4 0 1 0 0-204.8H102.4a102.4 102.4 0 1 0 0 204.8z m0-409.6h1126.4a102.4 102.4 0 1 0 0-204.8H102.4a102.4 102.4 0 1 0 0 204.8z m0-409.6h1126.4a102.4 102.4 0 1 0 0-204.8H102.4a102.4 102.4 0 1 0 0 204.8z"  horiz-adv-x="1331" />

    
    <glyph glyph-name="search" unicode="&#58881;" d="M703.873 663.563c-130.172 130.232-341.269 130.232-471.502 0s-130.233-341.33 0-471.502c60.328-60.346 143.68-97.672 235.751-97.672 92.07 0 175.422 37.327 235.75 97.672 60.347 60.329 97.673 143.681 97.673 235.751s-37.327 175.422-97.672 235.75zM159.787 119.47500000000002C80.843 198.399 32.014 307.443 32.014 427.891 32.014 668.7470000000001 227.267 864 468.123 864s436.109-195.253 436.109-436.109c0-120.448-48.83-229.492-127.773-308.415-78.917-78.897-187.928-127.694-308.336-127.694-120.409 0-229.419 48.797-308.336 127.694z m814.631-197.959c-10.772-10.789-25.662-17.463-42.112-17.463s-31.34 6.674-42.111 17.462l-84.163 84.223c-10.77 10.77-17.431 25.648-17.431 42.082 0 32.868 26.645 59.512 59.512 59.512 16.433 0 31.312-6.661 42.082-17.43l84.222-84.163c10.818-10.759 17.512-25.653 17.512-42.111s-6.695-31.353-17.51-42.109z"  horiz-adv-x="1024" />

    
    <glyph glyph-name="header-pane" unicode="&#58882;" d="M0 384.01A511.97 511.97 0 1 1 255.985 827.397 511.97 511.97 0 0 1 0 384.01zM0 384.01a511.97 511.97 0 1 1 1023.942 0A511.97 511.97 0 1 1 0 384.01zM634.107 735.3240000000001a9.973 9.973 0 0 1-18.8 0.492l-64.385-163.831a251.378 251.378 0 0 1-115.091-4.321 248.634 248.634 0 0 1-102.681-57.34L170.978 620.601a8.929 8.929 0 0 1-13.598-9.79l209.498-717.864s101.514-35.183 227.52-14.335c0 0 70.427 10.464 140.772 44.48 0 0 68.379 32.438 123.753 84.413zM571.01 355.278a30.104 30.104 0 1 0-30.083-30.104 30.124 30.124 0 0 0 30.083 30.104z m-120.17-30.104a30.104 30.104 0 1 0-30.103-30.083 30.124 30.124 0 0 0 30.104 30.083z m259.754-135.98C676.211 123.80700000000002 603.41 78.61000000000001 519.138 78.61000000000001a224.632 224.632 0 0 0-106.49 26.397 16.055 16.055 0 0 0-6.143 22.527c0.102 0.102 0.102 0.205 0.205 0.307a17.591 17.591 0 0 0 23.038 6.553 192.112 192.112 0 0 1 89.534-21.769c74.195 0 137.679 41.08 164.773 99.282a12.84 12.84 0 0 0 20.908 3.788c0.901-0.799 1.7-1.7 2.601-2.498a19.885 19.885 0 0 0 3.031-24.001z"  horiz-adv-x="1024" />

    
    <glyph glyph-name="header-cube" unicode="&#58883;" d="M949.975796 896H67.890563C30.317287 896 0 865.583302 0 828.109437v-882.184644C0-91.54907100000003 30.317287-121.96576900000002 67.890563-121.96576900000002h882.184644c37.473865 0 67.890563 30.317287 67.890562 67.890562V828.109437C1017.866359 865.583302 987.449661 896 949.975796 896zM630.401149 736.291708c-2.882911 8.84656-15.307263 9.244203-18.687227 0.497054l-64.014538-162.918264c-36.77799 7.156578-75.942831 6.361292-114.410804-4.274661-39.56149-10.934185-73.954617-31.013162-102.084868-56.956378L169.975431 622.278548c-6.858346 4.672304-15.804316-1.888804-13.518864-9.741256l216.098028-740.537292h524.836907L630.400155 736.291708zM703.360665 217.19080099999996c-0.893702 0.795286-1.688988 1.689982-2.583685 2.485268-6.362286 6.460703-16.897834 4.472488-20.774852-3.777608-26.937323-57.852068-90.056171-98.704904-163.81296-98.704903-32.503329 0-62.820616 7.951863-88.962653 21.668554-8.151679 4.274661-18.092751 1.292339-22.962882-6.560113-0.099411-0.099411-0.099411-0.198821-0.198822-0.298232-4.871125-7.952858-1.888804-18.190173 6.163465-22.464835 31.112573-16.699013 67.294098-26.241448 105.862475-26.241447 83.79429 0 156.158335 45.028085 190.351646 110.036731 4.374072 8.052268 3.280554 17.69312-3.081732 23.856585z m-255.161471 51.489782c16.500191 0 29.919644 13.418459 29.919645 29.919644s-13.419453 29.919644-29.919645 29.919644-29.919644-13.419453-29.919644-29.919644 13.320042-29.919644 29.919644-29.919644z m119.479756 29.919644c16.501185 0 29.919644 13.418459 29.919644 29.919644s-13.418459 29.919644-29.919644 29.919645-29.919644-13.419453-29.919644-29.919645 13.419453-29.919644 29.919644-29.919644z"  horiz-adv-x="1024" />

    
    <glyph glyph-name="camera" unicode="&#58884;" d="M1107.836 741.508H1002.33S948.356 884.802 912.153 884.802H516.426c-34.32 0-107.916-143.294-107.916-143.294h-74.224c-7.366 12.883-32.536 53.942-41.72 53.942H171.67c-10.372 0-33.066-53.942-33.066-57.542 0-3.7 1.223-7.4 3.7-10.472A181.644 181.644 0 0 1 30.621 559.732v-494.658A181.942 181.942 0 0 1 84-63.422000000000025a180.521 180.521 0 0 1 128.826-53.314h894.414c100.584 0 182.8 81.458 183.395 181.248V559.137c0 101.046-82.184 182.371-182.8 182.371z m-828.78-157.233a71.746 71.746 0 0 0-50.87-20.877 71.78 71.78 0 0 0-50.935 20.877 71.449 71.449 0 0 0-20.876 50.77 71.25 71.25 0 0 0 20.942 50.738 71.548 71.548 0 0 0 50.87 20.876c18.993 0 37.36-7.3 50.87-20.81 13.444-13.477 20.942-31.777 20.876-50.804 0-18.993-7.366-37.326-20.876-50.77zM713.993 8.720000000000027c-188.284 0-341.652 151.816-341.652 339.802 0 187.293 152.708 339.803 341.652 339.803s341.719-151.882 341.719-339.803c0-187.326-152.774-339.802-341.719-339.802zM713.992 115.90999999999997c-129.42 0-233.736 104.052-233.736 232.613 0 128.529 104.91 232.713 233.736 232.713 129.42 0 233.703-104.184 233.703-232.713 0-128.594-104.877-232.613-233.703-232.613z"  horiz-adv-x="1321" />

    
    <glyph glyph-name="shoucang-copy-copy" unicode="&#59943;" d="M650.971429 686.32381l43.885714-90.209524 265.752381-39.009524c26.819048-4.87619 51.2-21.942857 58.514286-46.32381 9.752381-24.380952 2.438095-53.638095-17.066667-70.704762l-195.047619-190.171428L853.333333-15.847619000000009c4.87619-26.819048-7.314286-53.638095-29.257143-68.266667-12.190476-7.314286-26.819048-12.190476-41.447619-12.190476-12.190476 0-24.380952 2.438095-36.571428 9.752381l-231.619048 121.904762-117.028571-60.952381c-80.457143 121.904762-102.4 285.257143-63.390476 412.038095 46.32381 156.038095 156.038095 263.314286 316.952381 299.885715zM499.809524 783.847619c9.752381 0 29.257143-4.87619 34.133333-12.190476l102.4-216.990476c4.87619-12.190476 17.066667-19.504762 31.695238-21.942857l248.685715-34.133334c9.752381-2.438095 17.066667-7.314286 19.504761-14.628571 2.438095-7.314286 0-14.628571-4.87619-21.942857l-185.295238-168.228572c-9.752381-9.752381-14.628571-21.942857-12.190476-34.133333L780.190476 13.409524000000033c2.438095-7.314286-2.438095-17.066667-9.752381-21.942857-4.87619-2.438095-9.752381-4.87619-14.628571-4.876191-4.87619 0-7.314286 0-12.190476 2.438095l-209.676191 121.904762c-9.752381 2.438095-14.628571 4.87619-21.942857 4.876191-7.314286 0-12.190476-2.438095-19.504762-4.876191l-212.114286-121.904762c-4.87619-2.438095-7.314286-2.438095-12.190476-2.438095s-9.752381 2.438095-14.628571 4.876191c-7.314286 4.87619-9.752381 12.190476-9.752381 21.942857l48.761905 246.247619c2.438095 12.190476-2.438095 26.819048-12.190477 34.133333L97.52381 459.580952c-4.87619 4.87619-7.314286 14.628571-4.876191 21.942858 2.438095 7.314286 9.752381 14.628571 19.504762 14.628571L358.4 530.285714c14.628571 2.438095 24.380952 9.752381 31.695238 21.942857l102.4 216.990477c4.87619 7.314286 12.190476 12.190476 21.942857 12.190476l-14.628571 2.438095zM512 871.619048c-29.257143 0-53.638095-14.628571-65.828571-41.447619l-117.028572-234.057143-265.752381-39.009524c-26.819048-4.87619-51.2-21.942857-58.514286-46.32381-9.752381-24.380952-2.438095-53.638095 17.066667-70.704762l195.047619-190.171428L170.666667-15.847619000000009c-4.87619-26.819048 7.314286-53.638095 29.257143-68.266667 12.190476-7.314286 26.819048-12.190476 41.447619-12.190476 12.190476 0 24.380952 2.438095 36.571428 9.752381l231.619048 121.904762 231.619047-121.904762c12.190476-4.87619 24.380952-9.752381 36.571429-9.752381 14.628571 0 29.257143 4.87619 41.447619 12.190476 21.942857 14.628571 34.133333 41.447619 29.257143 68.266667l-46.32381 263.314286 195.047619 190.171428c19.504762 19.504762 26.819048 46.32381 17.066667 70.704762-9.752381 24.380952-31.695238 43.885714-58.514286 46.32381l-265.752381 39.009523-117.028571 234.057143C565.638095 856.990476 541.257143 871.619048 512 871.619048z"  horiz-adv-x="1024" />

    
    <glyph glyph-name="gerenxinxi1-copy" unicode="&#59944;" d="M246.8 573c30.3 0 54.8 30.2 54.8 67.4V716c0 37.2-24.6 67.4-54.8 67.4-30.3 0-54.8-30.2-54.8-67.4v-75.7c-0.1-37.2 24.5-67.3 54.8-67.3zM959.7 645.3c-2.5 61.7-59.5 57.6-59.5 57.6h-32.7v-107.1s-0.7-47-46.3-47.1h-8.6c-14.8 0-41.2 0.1-70.6 0h-12.6c-46.4 1.5-44.2 45.9-44.2 45.9V702.9H339v-108.3s2.2-44.4-44.2-45.9h-12.6c-29.4 0.1-55.8 0-70.6 0H203c-45.6 0.1-46.3 47.1-46.3 47.1V702.9H124s-57 4.1-59.5-57.6c-0.4-2.5-0.4-4-0.4-4s0.1-570 0.1-595.2c0-61.2 62-61.8 62-61.8h771.9s62 0.6 62 61.8c0 25.3 0.1 595.2 0.1 595.2s-0.1 1.5-0.5 4zM513.3 109.79999999999995c0-46.8-89.5-57.4-173.6-57.4-83.9 0-174.6 10.6-174.6 57.4v12.9c0 34.3 61.9 69.1 114.7 88.2 3.8 1.4 22 11.3 11.8 38-26.1 26.7-45.9 69.9-45.9 112.5 0 65.2 43.1 99.4 93.5 99.4s93.7-34.2 93.7-99.4c0-42.4-19.9-85.5-45.8-112.2h0.1c-10-30.3 6-37.5 8.5-38.3 55.4-18.3 117.6-52.8 117.6-88.2v-12.9z m307.5 21.5H625c-23.2 0-42.1 18.8-42.1 42.1 0 23.2 18.8 42 42.1 42h195.8c23.2 0 42-18.8 42-42 0.1-23.3-18.7-42.1-42-42.1z m0 166.5H625c-23.2 0-42.1 18.8-42.1 42.1 0 23.2 18.8 42 42.1 42h195.8c23.2 0 42-18.8 42-42 0.1-23.3-18.7-42.1-42-42.1zM777.7 573c30.3 0 54.8 30.2 54.8 67.4V716c0 37.2-26.6 67.4-56.9 67.4-30.3 0-52.8-30.2-52.8-67.4v-75.7c0-37.2 24.6-67.3 54.9-67.3z"  horiz-adv-x="1024" />

    
    <glyph glyph-name="icon-copy" unicode="&#59945;" d="M395.923761 474.901883a116.044775 114.338234 0 1 1 232.08955 0 116.044775 114.338234 0 1 1-232.08955 0ZM511.968536 895.990827A423.862074 423.862074 0 0 1 85.333333 474.901883a421.728897 421.728897 0 0 1 306.537393-403.810219l-5.33294 77.220971A350.267501 350.267501 0 0 0 157.648 474.901883a354.320536 354.320536 0 0 0 708.641071 0 350.267501 350.267501 0 0 0-228.889786-326.589248l-5.33294-77.220971A421.728897 421.728897 0 0 1 938.603738 474.901883 423.862074 423.862074 0 0 1 511.968536 895.990827zM511.968536 748.16173a272.406577 272.406577 0 0 1-125.217432-516.65523A183.239819 183.239819 0 0 0 411.495946 298.701544a202.651721 202.651721 0 1 0 304.830852 175.560386A201.371815 201.371815 0 0 0 612.441126 298.701544a183.239819 183.239819 0 0 0 24.744842-67.834997A272.406577 272.406577 0 0 1 511.968536 748.16173zM536.50006-127.93365800000004h-49.063048a44.156743 44.156743 0 0 0-45.863285 36.263992l-30.717734 263.873873c-8.319386 78.714195 37.117263 152.522085 101.112543 152.522084s109.431929-73.80789 101.112543-152.522084L582.363344-91.669666a44.156743 44.156743 0 0 0-45.863284-36.263992z"  horiz-adv-x="1024" />

    
    <glyph glyph-name="bookmark-fill-01-copy" unicode="&#59946;" d="M197.57462 621.81959062a171.75172781 171.75172781 0 0 0-85.09041375 24.87258282C43.88824156 685.44103875 12.99387594 761.36787 44.15005812 814.77846844a101.06123063 101.06123063 0 0 0 78.54499782 47.91244781 166.77721125 166.77721125 0 0 0 102.89394656-22.77804844 166.51539469 166.51539469 0 0 0 70.95231469-78.54499781 101.06123063 101.06123063 0 0 0-2.61816657-91.37401406 101.06123063 101.06123063 0 0 0-78.54499781-47.91244875 142.69007906 142.69007906 0 0 0-17.80353281-0.26181656zM139.71313813 837.81833437a117.81749625 117.81749625 0 0 1-14.39991563 0 75.66501469 75.66501469 0 0 1-58.64693156-36.13069875c-23.82531562-41.10521531 2.61816656-100.79941313 58.90874812-133.26468a140.59554562 140.59554562 0 0 1 86.3994975-19.37443218 75.66501469 75.66501469 0 0 1 58.64693157 35.0834325 75.66501469 75.66501469 0 0 1 1.04726625 67.28688093 140.33372906 140.33372906 0 0 1-59.95601438 65.97779813A145.57006219 145.57006219 0 0 1 139.71313813 837.81833437zM1043.50424375 248.73085218999995l-528.60783375 523.63331719a61.52691469 61.52691469 0 0 1-40.05794906 18.32716593L190.76738656 785.45500219a16.75626656 16.75626656 0 0 1-16.49444906-16.49444907l-5.49814969-292.97284125a50.26879875 50.26879875 0 0 1 15.97081594-32.465265l528.60783375-523.63331718a52.36333125 52.36333125 0 0 1 75.14138062 0l255.00942563 255.53305875a52.36333125 52.36333125 0 0 1 0 73.30866375zM291.0431675 615.27417469a60.21783188 60.21783188 0 1 0 60.21783094 60.21783094 60.21783188 60.21783188 0 0 0-59.17056469-61.26509813z"  horiz-adv-x="1096" />

    
    <glyph glyph-name="lianjie-copy" unicode="&#59947;" d="M328.95228839 544.26383803m-183.95388839 0a183.95388839 183.95388839 0 1 1 367.9077768 0 183.95388839 183.95388839 0 1 1-367.9077768 0ZM570.51312987 680.57871803m-47.63900839 0a47.63900839 47.63900839 0 1 1 95.27801679 0 47.63900839 47.63900839 0 1 1-95.27801679 0ZM713.21979259 332.17801482000004m-70.63324444 0a70.63324445 70.63324445 0 1 1 141.26648888 0 70.63324445 70.63324445 0 1 1-141.26648888 0ZM540.42690974 350.56524087c-5.30242877 0-10.75214722 2.06205563-14.87625847 6.18616688-8.24822251 8.24822251-8.24822251 21.50429441 0 29.60522726L686.68556973 547.4915534500001c8.24822251 8.24822251 21.50429441 8.24822251 29.60522723 0 8.24822251-8.24822251 8.24822251-21.50429441 0-29.60522724L555.15587853 356.75140775c-4.12411126-4.12411126-9.42654002-6.1861669-14.72896879-6.18616688zM324.12835915 13.261861940000017c-60.95549906 0-121.91099815 23.23816681-168.2085766 69.53574528-92.77391209 92.77391209-92.77391209 243.64324115 0 336.41715324l247.75460914 247.75460913c10.01028723 10.01028723 26.09824886 10.01028723 35.92978097 0s10.01028723-26.09824886 0-35.92978097L191.84956352 383.28497948999996c-72.93209274-72.93209274-72.93209274-191.62549855 0-264.55759128s191.62549855-72.93209274 264.55759129 0L839.6581519 501.97838528c46.29757847 46.29757847 46.29757847 121.55348788 0 167.67231126-44.86753743 44.86753743-122.98352893 44.68878233-167.67231124 0l-370.02311751-370.02311754c-19.30555395-19.12679883-19.30555395-50.40894644 0-69.71450041 19.12679883-19.12679883 50.40894644-19.12679883 69.7145004 0l67.92694911 67.74819399c10.01028723 10.01028723 26.09824886 10.01028723 35.92978097 0 10.01028723-10.01028723 10.01028723-26.09824886 0-35.92978097l-67.9269491-67.748194c-38.96861817-38.96861817-102.6054442-38.96861817-141.57406238 0-38.96861817 38.96861817-38.96861817 102.6054442 0 141.57406236l370.02311755 370.02311752c65.96064269 65.96064269 173.5712305 66.13939781 239.53187317 0 66.13939781-66.13939781 65.96064269-173.5712305 0-239.53187316L492.33693579 82.79760722000003c-46.29757847-46.47633361-107.25307755-69.53574526-168.20857664-69.53574528z"  horiz-adv-x="1024" />

    
    <glyph glyph-name="paihang-copy" unicode="&#59948;" d="M218.42 784h587.16v-426.42C805.58 195.44000000000005 674.14 64 512 64S218.42 195.44000000000005 218.42 357.58000000000004V784zM509.59 443.513l-53.56-24.589c-6.264-2.876-13.673-0.13-16.549 6.135a12.48 12.48 0 0 0-1.054 6.65l6.823 58.586a12.48 12.48 0 0 1-3.214 9.896l-39.941 43.389c-4.668 5.071-4.341 12.966 0.73 17.634a12.48 12.48 0 0 0 5.994 3.054l57.79 11.61a12.48 12.48 0 0 1 8.421 6.12l28.887 51.396c3.377 6.008 10.986 8.141 16.994 4.764a12.48 12.48 0 0 0 4.765-4.764l28.887-51.396a12.48 12.48 0 0 1 8.421-6.12l57.79-11.61c6.758-1.358 11.135-7.936 9.778-14.694a12.48 12.48 0 0 0-3.054-5.994l-39.94-43.389a12.48 12.48 0 0 1-3.215-9.896l6.824-58.585c0.797-6.847-4.107-13.043-10.953-13.84a12.48 12.48 0 0 0-6.65 1.054l-53.56 24.59a12.48 12.48 0 0 1-10.414 0zM406 4m25 0l162.377 0q25 0 25-25l0 0q0-25-25-25l-162.377 0q-25 0-25 25l0 0q0 25 25 25ZM805.58 784H943v-143.83c0-75.895-61.525-137.42-137.42-137.42V784zM218.42 784v-281.25C142.525 502.75 81 565.71 81 643.375V784h137.42z"  horiz-adv-x="1024" />

    
    <glyph glyph-name="tujiguanli-copy" unicode="&#59949;" d="M893.465859 127.43111099999999v63.09495c20.48 13.239596 25.444848 35.891717 25.444848 61.957171V659.393939c0 40.96-46.131717 58.130101-87.195151 58.130101h-581.301011c-23.272727 0-15.411717-12.308687-29.06505-29.06505H163.219394c3.309899 56.888889 42.097778 87.298586 87.608889 87.298586h628.880808c53.785859 0 97.331717-43.442424 97.331717-97.124849V223.418182c0-48.924444-36.305455-89.367273-83.574949-95.987071zM773.585455 630.328889H134.154343c-53.785859 0-87.195152-33.616162-87.195151-87.195152v-455.111111c0-53.682424 43.545859-97.124848 97.331717-97.124848h628.880808c53.785859 0 87.608889 33.616162 87.608889 87.195151V543.133737c0 53.57899-14.99798 87.195152-87.195151 87.195152z m29.06505-523.067475c0-20.273131-8.791919-58.130101-29.06505-58.130101H134.154343c-20.273131 0-23.169293 23.686465-23.169292 43.959596V541.375354c0 20.169697 16.446061 36.615758 36.719191 36.615757L773.585455 572.1987879999999c20.273131 0 29.065051-8.791919 29.06505-29.065051v-435.872323zM176.82101 101.67596000000003s43.907879 365.304242 129.202424 359.317979c24.746667-1.861818 58.375758-44.140606 124.754748-206.183434 10.433939-25.703434 66.055758-115.626667 106.162424-49.726061 15.838384 26.117172 24.578586 77.459394 50.941414 86.186667 13.989495 4.848485 59.099798-8.003232 143.023839-189.608081H176.82101zM559.747879 454.710303a64.853333 64.853333 0 0 1 32.426666-56.164848 64.830061 64.830061 0 0 1 64.840404 0 64.853333 64.853333 0 0 1 32.426667 56.164848c0 23.169293-12.360404 44.580202-32.426667 56.151919a64.830061 64.830061 0 0 1-64.840404 0 64.815838 64.815838 0 0 1-32.426666-56.151919"  horiz-adv-x="1024" />

    
    <glyph glyph-name="qian-copy" unicode="&#59950;" d="M14.4 264.79999999999995l540 540 264-264-540-540-264 264zM324 310.4c51.2-51.2 134.4-51.2 185.6 0 51.2 51.2 51.2 134.4 0 185.6s-134.4 51.2-185.6 0-51.2-134.4 0-185.6zM392.8 417.6c-5.6 5.6-4 10.4 1.6 16s11.2 7.2 20.8 8l-1.6 25.6c-11.2 0-22.4-1.6-32.8-8.8L367.2 472l-16-16 14.4-14.4c-10.4-16-8.8-33.6 5.6-47.2 24-24 61.6 10.4 72-1.6 5.6-5.6 4.8-10.4-1.6-17.6-6.4-6.4-13.6-9.6-27.2-11.2l6.4-26.4c13.6 0.8 26.4 7.2 35.2 13.6l13.6-13.6 16 16-14.4 14.4c11.2 18.4 8 35.2-6.4 48.8-25.6 25.6-61.6-8.8-72 0.8zM534.4 784.8L35.2 285.6l-20.8-20.8 20.8-20.8 221.6-221.6 20.8-20.8 540 540-262.4 263.2-20.8-20z m228-217.6c-2.4-1.6-4-3.2-6.4-4.8-11.2-11.2-11.2-30.4 0-41.6 1.6-1.6 4-4 6.4-4.8L304 57.60000000000002c-1.6 2.4-3.2 4-4.8 6.4-11.2 11.2-30.4 11.2-41.6 0-1.6-1.6-4-4-4.8-6.4L71.2 239.20000000000005c2.4 1.6 4 3.2 6.4 4.8 11.2 11.2 11.2 30.4 0 41.6-1.6 1.6-4 4-6.4 4.8l458.4 458.4c1.6-2.4 3.2-4 4.8-6.4 11.2-11.2 30.4-11.2 41.6 0 1.6 1.6 4 4 4.8 6.4l181.6-181.6zM155.2 288l693.6 320.8 156.8-338.4L312-50.39999999999998 155.2 288zM460.8 224c30.4-65.6 108.8-94.4 174.4-64 65.6 30.4 94.4 108.8 64 174.4-30.4 65.6-108.8 94.4-174.4 64s-94.4-108.8-64-174.4zM821.6 596.8l-640-296-26.4-12.8 12.8-27.2L300-24l12.8-27.2 692 321.6L848 608.8l-26.4-12z m139.2-282.4l-7.2-2.4c-15.2-6.4-20.8-24.8-14.4-39.2 1.6-2.4 2.4-4.8 4-6.4l-588-272-2.4 7.2c-6.4 15.2-24.8 20.8-39.2 14.4-2.4-1.6-4.8-2.4-6.4-4l-108 232 7.2 2.4c15.2 6.4 20.8 24.8 14.4 39.2-1.6 2.4-2.4 4.8-4 6.4l588 272 2.4-7.2c6.4-15.2 24.8-20.8 39.2-14.4 2.4 1.6 4.8 2.4 6.4 4l108-232z"  horiz-adv-x="1024" />

    
    <glyph glyph-name="xiangji1-copy" unicode="&#59951;" d="M507.4 101.79999999999995c-113.8 0-207.1 93.3-207.1 207.1S393.6 516 507.4 516s207.1-93.3 207.1-207.1-93.3-207.1-207.1-207.1z m434.7 507.5c-25 25-54.6 36.4-88.7 36.4H744.1l-25 66c-6.8 15.9-18.2 29.6-34.1 41s-34.1 18.2-50.1 18.2H384.6c-18.2 0-34.1-6.8-50.1-18.2-15.9-11.4-27.3-25-34.1-41l-27.3-66H161.6c-34.1 0-63.7-11.4-88.7-36.4s-36.4-54.6-36.4-88.7v-439.2c0-34.1 11.4-63.7 36.4-88.7s54.6-36.4 88.7-36.4h691.8c34.1 0 63.7 11.4 88.7 36.4s36.4 54.6 36.4 88.7V520.5c0 34.2-11.4 63.7-36.4 88.8zM507.4 445.4c-77.4 0-138.8-61.4-138.8-138.8S430 167.79999999999995 507.4 167.79999999999995s138.8 61.4 138.8 138.8-61.4 138.8-138.8 138.8z"  horiz-adv-x="1024" />

    


  </font>
</defs>
</svg>
